{"glyphs":{"0":{"ha":1042,"x_min":86,"x_max":781,"o":"m 86 0 l 86 1215 l 781 1215 l 781 0 l 86 0 m 601 1036 l 265 1036 l 265 179 l 601 179 l 601 1036 z "},"1":{"ha":1042,"x_min":174,"x_max":694,"o":"m 174 863 l 174 1043 l 344 1043 l 344 1215 l 524 1215 l 524 179 l 694 179 l 694 0 l 174 0 l 174 179 l 344 179 l 344 863 l 174 863 z "},"2":{"ha":1042,"x_min":86,"x_max":781,"o":"m 781 0 l 86 0 l 86 697 l 601 697 l 601 1036 l 265 1036 l 265 863 l 86 863 l 86 1215 l 781 1215 l 781 518 l 265 518 l 265 179 l 601 179 l 601 353 l 781 353 l 781 0 z "},"3":{"ha":1042,"x_min":86,"x_max":781,"o":"m 258 518 l 258 697 l 601 697 l 601 1036 l 265 1036 l 265 863 l 86 863 l 86 1215 l 781 1215 l 781 0 l 86 0 l 86 353 l 265 353 l 265 179 l 601 179 l 601 518 l 258 518 z "},"4":{"ha":1042,"x_min":0,"x_max":868,"o":"m 172 868 l 344 868 l 344 1043 l 517 1043 l 517 1215 l 696 1215 l 696 525 l 868 525 l 868 346 l 696 346 l 696 0 l 517 0 l 517 346 l 0 346 l 0 697 l 172 697 l 172 868 m 351 689 l 179 689 l 179 525 l 517 525 l 517 863 l 351 863 l 351 689 z "},"5":{"ha":1042,"x_min":86,"x_max":781,"o":"m 265 179 l 601 179 l 601 689 l 86 689 l 86 1215 l 781 1215 l 781 1036 l 265 1036 l 265 868 l 781 868 l 781 0 l 86 0 l 86 353 l 265 353 l 265 179 z "},"6":{"ha":1042,"x_min":86,"x_max":781,"o":"m 265 518 l 265 179 l 601 179 l 601 518 l 265 518 m 781 0 l 86 0 l 86 1215 l 781 1215 l 781 863 l 601 863 l 601 1036 l 265 1036 l 265 697 l 781 697 l 781 0 z "},"7":{"ha":1042,"x_min":86,"x_max":781,"o":"m 436 0 l 258 0 l 258 525 l 431 525 l 431 697 l 601 697 l 601 1036 l 265 1036 l 265 863 l 86 863 l 86 1215 l 781 1215 l 781 690 l 608 690 l 608 518 l 436 518 l 436 0 z "},"8":{"ha":1042,"x_min":86,"x_max":781,"o":"m 86 0 l 86 1215 l 781 1215 l 781 0 l 86 0 m 601 697 l 601 1036 l 265 1036 l 265 697 l 601 697 m 265 518 l 265 179 l 601 179 l 601 518 l 265 518 z "},"9":{"ha":1042,"x_min":86,"x_max":781,"o":"m 601 1036 l 265 1036 l 265 697 l 601 697 l 601 1036 m 265 179 l 601 179 l 601 518 l 86 518 l 86 1215 l 781 1215 l 781 0 l 86 0 l 86 353 l 265 353 l 265 179 z "},"\r":{"ha":0,"x_min":0,"x_max":0,"o":""}," ":{"ha":694,"x_min":0,"x_max":0,"o":""},"!":{"ha":347,"x_min":0,"x_max":174,"o":"m 174 0 l 0 0 l 0 179 l 174 179 l 174 0 m 174 346 l 0 346 l 0 1215 l 174 1215 l 174 346 z "},"\"":{"ha":694,"x_min":0,"x_max":521,"o":"m 178 694 l 0 694 l 0 1215 l 178 1215 l 178 694 m 521 694 l 343 694 l 343 1215 l 521 1215 l 521 694 z "},"#":{"ha":1042,"x_min":0,"x_max":868,"o":"m 517 525 l 517 690 l 351 690 l 351 525 l 517 525 m 868 346 l 696 346 l 696 0 l 517 0 l 517 346 l 351 346 l 351 0 l 172 0 l 172 346 l 0 346 l 0 525 l 172 525 l 172 689 l 0 689 l 0 868 l 172 868 l 172 1215 l 351 1215 l 351 868 l 517 868 l 517 1215 l 696 1215 l 696 868 l 868 868 l 868 689 l 696 689 l 696 525 l 868 525 l 868 346 z "},"$":{"ha":1060,"x_min":0,"x_max":694,"o":"m 433 1388 l 433 -176 l 260 -176 l 260 1388 l 433 1388 m 0 0 l 0 353 l 179 353 l 179 179 l 515 179 l 515 518 l 0 518 l 0 1215 l 694 1215 l 694 863 l 515 863 l 515 1036 l 179 1036 l 179 697 l 694 697 l 694 0 l 0 0 z "},"%":{"ha":1238,"x_min":1,"x_max":1139,"o":"m 483 353 l 483 868 l 656 868 l 656 1215 l 833 1215 l 833 863 l 663 863 l 663 346 l 490 346 l 490 0 l 313 0 l 313 353 l 483 353 m 1 474 l 1 1082 l 418 1082 l 418 474 l 1 474 m 311 992 l 108 992 l 108 564 l 311 564 l 311 992 m 722 0 l 722 607 l 1139 607 l 1139 0 l 722 0 m 1032 517 l 829 517 l 829 90 l 1032 90 l 1032 517 z "},"&":{"ha":1389,"x_min":0,"x_max":1215,"o":"m 1215 0 l 863 0 l 863 518 l 353 518 l 353 179 l 518 179 l 518 353 l 697 353 l 697 0 l 0 0 l 0 179 l 172 179 l 172 1036 l 0 1036 l 0 1215 l 697 1215 l 697 863 l 518 863 l 518 1036 l 353 1036 l 353 697 l 863 697 l 863 1043 l 1043 1043 l 1043 697 l 1215 697 l 1215 518 l 1043 518 l 1043 179 l 1215 179 l 1215 0 z "},"'":{"ha":347,"x_min":0,"x_max":174,"o":"m 174 694 l 0 694 l 0 1215 l 174 1215 l 174 694 z "},"(":{"ha":521,"x_min":0,"x_max":347,"o":"m 176 179 l 347 179 l 347 0 l 171 0 l 171 172 l 0 172 l 0 1043 l 171 1043 l 171 1215 l 347 1215 l 347 1036 l 176 1036 l 176 179 z "},")":{"ha":521,"x_min":0,"x_max":347,"o":"m 347 172 l 176 172 l 176 0 l 0 0 l 0 179 l 171 179 l 171 1036 l 0 1036 l 0 1215 l 176 1215 l 176 1043 l 347 1043 l 347 172 z "},"*":{"ha":1042,"x_min":0,"x_max":868,"o":"m 868 174 l 689 174 l 689 346 l 517 346 l 517 518 l 351 518 l 351 346 l 179 346 l 179 174 l 0 174 l 0 353 l 172 353 l 172 525 l 344 525 l 344 689 l 172 689 l 172 863 l 0 863 l 0 1042 l 179 1042 l 179 868 l 351 868 l 351 697 l 517 697 l 517 868 l 689 868 l 689 1042 l 868 1042 l 868 863 l 696 863 l 696 689 l 524 689 l 524 525 l 696 525 l 696 353 l 868 353 l 868 174 z "},"+":{"ha":1042,"x_min":0,"x_max":868,"o":"m 868 518 l 524 518 l 524 174 l 344 174 l 344 518 l 0 518 l 0 697 l 344 697 l 344 1042 l 524 1042 l 524 697 l 868 697 l 868 518 z "},",":{"ha":521,"x_min":0,"x_max":347,"o":"m 171 -347 l 171 -4 l 0 -4 l 0 174 l 347 174 l 347 -347 l 171 -347 z "},"-":{"ha":868,"x_min":0,"x_max":694,"o":"m 694 521 l 0 521 l 0 694 l 694 694 l 694 521 z "},".":{"ha":347,"x_min":0,"x_max":174,"o":"m 174 0 l 0 0 l 0 174 l 174 174 l 174 0 z "},"/":{"ha":694,"x_min":0,"x_max":521,"o":"m 521 863 l 350 863 l 350 346 l 178 346 l 178 0 l 0 0 l 0 353 l 171 353 l 171 868 l 343 868 l 343 1215 l 521 1215 l 521 863 z "},":":{"ha":347,"x_min":0,"x_max":174,"o":"m 174 0 l 0 0 l 0 179 l 174 179 l 174 0 m 174 689 l 0 689 l 0 868 l 174 868 l 174 689 z "},";":{"ha":521,"x_min":0,"x_max":347,"o":"m 171 -347 l 171 0 l 0 0 l 0 179 l 347 179 l 347 -347 l 171 -347 m 347 689 l 171 689 l 171 868 l 347 868 l 347 689 z "},"<":{"ha":868,"x_min":0,"x_max":694,"o":"m 694 863 l 522 863 l 522 690 l 350 690 l 350 525 l 522 525 l 522 353 l 694 353 l 694 174 l 344 174 l 344 346 l 172 346 l 172 518 l 0 518 l 0 697 l 172 697 l 172 869 l 344 869 l 344 1042 l 694 1042 l 694 863 z "},"=":{"ha":961,"x_min":0,"x_max":869,"o":"m 869 689 l 1 689 l 1 868 l 869 868 l 869 689 m 868 346 l 0 346 l 0 525 l 868 525 l 868 346 z "},">":{"ha":868,"x_min":0,"x_max":694,"o":"m 350 869 l 522 869 l 522 697 l 694 697 l 694 518 l 522 518 l 522 346 l 350 346 l 350 174 l 0 174 l 0 353 l 172 353 l 172 525 l 344 525 l 344 690 l 172 690 l 172 863 l 0 863 l 0 1042 l 350 1042 l 350 869 z "},"?":{"ha":694,"x_min":0,"x_max":521,"o":"m 178 346 l 0 346 l 0 697 l 343 697 l 343 1036 l 178 1036 l 178 863 l 0 863 l 0 1215 l 521 1215 l 521 518 l 178 518 l 178 346 m 178 0 l 0 0 l 0 179 l 178 179 l 178 0 z "},"@":{"ha":1563,"x_min":0,"x_max":1389,"o":"m 346 524 l 864 524 l 864 689 l 346 689 l 346 868 l 1043 868 l 1043 179 l 1210 179 l 1210 1036 l 179 1036 l 179 -168 l 1043 -168 l 1043 -347 l 0 -347 l 0 1215 l 1389 1215 l 1389 0 l 346 0 l 346 524 m 864 344 l 525 344 l 525 179 l 864 179 l 864 344 z "},"A":{"ha":1215,"x_min":0,"x_max":1042,"o":"m 351 1040 l 351 696 l 690 696 l 690 1040 l 351 1040 m 697 1043 l 869 1043 l 869 176 l 1042 176 l 1042 0 l 690 0 l 690 518 l 351 518 l 351 176 l 524 176 l 524 0 l 0 0 l 0 176 l 172 176 l 172 1043 l 344 1043 l 344 1215 l 697 1215 l 697 1043 z "},"B":{"ha":1042,"x_min":0,"x_max":868,"o":"m 351 518 l 351 179 l 689 179 l 689 518 l 351 518 m 351 1036 l 351 697 l 689 697 l 689 1036 l 351 1036 m 868 0 l 0 0 l 0 179 l 172 179 l 172 1036 l 0 1036 l 0 1215 l 868 1215 l 868 0 z "},"C":{"ha":868,"x_min":0,"x_max":694,"o":"m 694 0 l 0 0 l 0 1215 l 694 1215 l 694 863 l 515 863 l 515 1036 l 179 1036 l 179 179 l 515 179 l 515 353 l 694 353 l 694 0 z "},"D":{"ha":1042,"x_min":0,"x_max":868,"o":"m 868 0 l 0 0 l 0 179 l 172 179 l 172 1036 l 0 1036 l 0 1215 l 868 1215 l 868 0 m 689 1036 l 351 1036 l 351 179 l 689 179 l 689 1036 z "},"E":{"ha":1042,"x_min":0,"x_max":868,"o":"m 696 518 l 351 518 l 351 179 l 689 179 l 689 353 l 868 353 l 868 0 l 0 0 l 0 179 l 172 179 l 172 1036 l 0 1036 l 0 1215 l 868 1215 l 868 863 l 689 863 l 689 1036 l 351 1036 l 351 697 l 696 697 l 696 518 z "},"F":{"ha":1042,"x_min":0,"x_max":868,"o":"m 524 0 l 0 0 l 0 179 l 172 179 l 172 1036 l 0 1036 l 0 1215 l 868 1215 l 868 863 l 689 863 l 689 1036 l 351 1036 l 351 697 l 696 697 l 696 518 l 351 518 l 351 179 l 524 179 l 524 0 z "},"G":{"ha":868,"x_min":0,"x_max":694,"o":"m 694 0 l 0 0 l 0 1215 l 694 1215 l 694 863 l 515 863 l 515 1036 l 179 1036 l 179 179 l 515 179 l 515 518 l 344 518 l 344 697 l 694 697 l 694 0 z "},"H":{"ha":1215,"x_min":0,"x_max":1042,"o":"m 1042 1036 l 869 1036 l 869 179 l 1042 179 l 1042 0 l 690 0 l 690 518 l 351 518 l 351 0 l 0 0 l 0 179 l 172 179 l 172 1036 l 0 1036 l 0 1215 l 351 1215 l 351 697 l 690 697 l 690 1215 l 1042 1215 l 1042 1036 z "},"I":{"ha":694,"x_min":0,"x_max":521,"o":"m 350 179 l 521 179 l 521 0 l 0 0 l 0 179 l 171 179 l 171 1036 l 0 1036 l 0 1215 l 521 1215 l 521 1036 l 350 1036 l 350 179 z "},"J":{"ha":868,"x_min":0,"x_max":694,"o":"m 522 0 l 0 0 l 0 179 l 344 179 l 344 1036 l 0 1036 l 0 1215 l 694 1215 l 694 1036 l 522 1036 l 522 0 z "},"K":{"ha":1215,"x_min":0,"x_max":1042,"o":"m 1042 0 l 690 0 l 690 346 l 518 346 l 518 518 l 351 518 l 351 0 l 0 0 l 0 179 l 172 179 l 172 1036 l 0 1036 l 0 1215 l 351 1215 l 351 697 l 518 697 l 518 868 l 690 868 l 690 1215 l 1042 1215 l 1042 1036 l 869 1036 l 869 863 l 697 863 l 697 689 l 524 689 l 524 525 l 697 525 l 697 353 l 869 353 l 869 179 l 1042 179 l 1042 0 z "},"L":{"ha":1042,"x_min":0,"x_max":868,"o":"m 524 1036 l 351 1036 l 351 179 l 689 179 l 689 353 l 868 353 l 868 0 l 0 0 l 0 179 l 172 179 l 172 1036 l 0 1036 l 0 1215 l 524 1215 l 524 1036 z "},"M":{"ha":1389,"x_min":0,"x_max":1215,"o":"m 1215 1036 l 1043 1036 l 1043 179 l 1215 179 l 1215 0 l 863 0 l 863 1036 l 697 1036 l 697 346 l 518 346 l 518 1036 l 353 1036 l 353 179 l 525 179 l 525 0 l 0 0 l 0 179 l 172 179 l 172 1036 l 0 1036 l 0 1215 l 1215 1215 l 1215 1036 z "},"N":{"ha":1389,"x_min":0,"x_max":1215,"o":"m 1215 1036 l 1043 1036 l 1043 0 l 863 0 l 863 172 l 690 172 l 690 518 l 518 518 l 518 863 l 353 863 l 353 0 l 0 0 l 0 179 l 172 179 l 172 1036 l 0 1036 l 0 1215 l 525 1215 l 525 868 l 697 868 l 697 525 l 863 525 l 863 1215 l 1215 1215 l 1215 1036 z "},"O":{"ha":868,"x_min":0,"x_max":694,"o":"m 0 0 l 0 1215 l 694 1215 l 694 0 l 0 0 m 515 1036 l 179 1036 l 179 179 l 515 179 l 515 1036 z "},"P":{"ha":1042,"x_min":0,"x_max":868,"o":"m 351 518 l 351 179 l 524 179 l 524 0 l 0 0 l 0 179 l 172 179 l 172 1036 l 0 1036 l 0 1215 l 868 1215 l 868 518 l 351 518 m 689 1036 l 351 1036 l 351 697 l 689 697 l 689 1036 z "},"Q":{"ha":1042,"x_min":0,"x_max":868,"o":"m 524 -174 l 344 -174 l 344 0 l 0 0 l 0 1215 l 868 1215 l 868 0 l 524 0 l 524 -174 m 524 181 l 689 181 l 689 1036 l 179 1036 l 179 181 l 344 181 l 344 524 l 524 524 l 524 181 z "},"R":{"ha":1215,"x_min":0,"x_max":1042,"o":"m 690 697 l 690 1036 l 351 1036 l 351 697 l 690 697 m 1042 0 l 690 0 l 690 346 l 518 346 l 518 518 l 351 518 l 351 0 l 0 0 l 0 179 l 172 179 l 172 1036 l 0 1036 l 0 1215 l 869 1215 l 869 518 l 697 518 l 697 353 l 869 353 l 869 179 l 1042 179 l 1042 0 z "},"S":{"ha":868,"x_min":0,"x_max":694,"o":"m 0 0 l 0 353 l 179 353 l 179 179 l 515 179 l 515 518 l 0 518 l 0 1215 l 694 1215 l 694 863 l 515 863 l 515 1036 l 179 1036 l 179 697 l 694 697 l 694 0 l 0 0 z "},"T":{"ha":1042,"x_min":0,"x_max":868,"o":"m 179 863 l 0 863 l 0 1215 l 868 1215 l 868 863 l 689 863 l 689 1036 l 524 1036 l 524 179 l 696 179 l 696 0 l 172 0 l 172 179 l 344 179 l 344 1036 l 179 1036 l 179 863 z "},"U":{"ha":1215,"x_min":0,"x_max":1042,"o":"m 869 179 l 1042 179 l 1042 0 l 172 0 l 172 1036 l 0 1036 l 0 1215 l 351 1215 l 351 179 l 690 179 l 690 1215 l 869 1215 l 869 179 z "},"V":{"ha":1215,"x_min":0,"x_max":1042,"o":"m 1042 1036 l 869 1036 l 869 172 l 697 172 l 697 0 l 172 0 l 172 1036 l 0 1036 l 0 1215 l 351 1215 l 351 179 l 690 179 l 690 1215 l 1042 1215 l 1042 1036 z "},"W":{"ha":1389,"x_min":0,"x_max":1215,"o":"m 1215 1036 l 1043 1036 l 1043 172 l 869 172 l 869 0 l 172 0 l 172 1036 l 0 1036 l 0 1215 l 353 1215 l 353 179 l 518 179 l 518 1215 l 697 1215 l 697 179 l 863 179 l 863 1215 l 1215 1215 l 1215 1036 z "},"X":{"ha":1042,"x_min":0,"x_max":868,"o":"m 868 0 l 517 0 l 517 346 l 351 346 l 351 0 l 0 0 l 0 179 l 172 179 l 172 353 l 344 353 l 344 863 l 172 863 l 172 1036 l 0 1036 l 0 1215 l 351 1215 l 351 868 l 517 868 l 517 1215 l 868 1215 l 868 1036 l 696 1036 l 696 863 l 524 863 l 524 353 l 696 353 l 696 179 l 868 179 l 868 0 z "},"Y":{"ha":1042,"x_min":0,"x_max":868,"o":"m 868 863 l 696 863 l 696 689 l 524 689 l 524 179 l 696 179 l 696 0 l 172 0 l 172 179 l 344 179 l 344 689 l 172 689 l 172 863 l 0 863 l 0 1215 l 179 1215 l 179 868 l 351 868 l 351 697 l 517 697 l 517 868 l 689 868 l 689 1215 l 868 1215 l 868 863 z "},"Z":{"ha":1042,"x_min":0,"x_max":868,"o":"m 696 689 l 524 689 l 524 518 l 351 518 l 351 179 l 689 179 l 689 353 l 868 353 l 868 0 l 0 0 l 0 353 l 172 353 l 172 525 l 344 525 l 344 697 l 517 697 l 517 868 l 689 868 l 689 1036 l 179 1036 l 179 863 l 0 863 l 0 1215 l 868 1215 l 868 863 l 696 863 l 696 689 z "},"[":{"ha":521,"x_min":0,"x_max":347,"o":"m 347 1036 l 176 1036 l 176 179 l 347 179 l 347 0 l 0 0 l 0 1215 l 347 1215 l 347 1036 z "},"\\":{"ha":694,"x_min":0,"x_max":521,"o":"m 521 0 l 343 0 l 343 346 l 171 346 l 171 863 l 0 863 l 0 1215 l 178 1215 l 178 868 l 350 868 l 350 353 l 521 353 l 521 0 z "},"]":{"ha":521,"x_min":0,"x_max":347,"o":"m 0 179 l 171 179 l 171 1036 l 0 1036 l 0 1215 l 347 1215 l 347 0 l 0 0 l 0 179 z "},"^":{"ha":868,"x_min":0,"x_max":868,"o":"m 868 558 l 689 558 l 689 731 l 517 731 l 517 903 l 351 903 l 351 731 l 179 731 l 179 558 l 0 558 l 0 908 l 172 908 l 172 1081 l 344 1081 l 344 1253 l 524 1253 l 524 1081 l 696 1081 l 696 908 l 868 908 l 868 558 z "},"_":{"ha":1215,"x_min":0,"x_max":1042,"o":"m 1042 0 l 0 0 l 0 174 l 1042 174 l 1042 0 z "},"`":{"ha":821,"x_min":-1,"x_max":690,"o":"m 174 1121 l 174 946 l -1 946 l -1 1121 l 171 1121 l 171 1294 l 519 1294 l 519 1119 l 690 1119 l 690 949 l 521 949 l 521 1121 l 174 1121 z "},"a":{"ha":1042,"x_min":0,"x_max":868,"o":"m 517 344 l 179 344 l 179 179 l 517 179 l 517 344 m 696 179 l 868 179 l 868 0 l 0 0 l 0 524 l 517 524 l 517 689 l 0 689 l 0 868 l 696 868 l 696 179 z "},"b":{"ha":1042,"x_min":0,"x_max":868,"o":"m 172 0 l 172 1036 l 0 1036 l 0 1215 l 351 1215 l 351 868 l 868 868 l 868 0 l 172 0 m 689 689 l 351 689 l 351 179 l 689 179 l 689 689 z "},"c":{"ha":868,"x_min":0,"x_max":694,"o":"m 179 179 l 515 179 l 515 351 l 694 351 l 694 0 l 0 0 l 0 868 l 694 868 l 694 517 l 515 517 l 515 689 l 179 689 l 179 179 z "},"d":{"ha":1042,"x_min":0,"x_max":868,"o":"m 179 179 l 517 179 l 517 690 l 179 690 l 179 179 m 344 1036 l 344 1215 l 696 1215 l 696 179 l 868 179 l 868 0 l 0 0 l 0 868 l 517 868 l 517 1036 l 344 1036 z "},"e":{"ha":868,"x_min":0,"x_max":694,"o":"m 694 868 l 694 344 l 179 344 l 179 179 l 694 179 l 694 0 l 0 0 l 0 868 l 694 868 m 179 689 l 179 524 l 515 524 l 515 689 l 179 689 z "},"f":{"ha":694,"x_min":0,"x_max":521,"o":"m 521 689 l 350 689 l 350 179 l 521 179 l 521 0 l 0 0 l 0 179 l 171 179 l 171 689 l 0 689 l 0 868 l 171 868 l 171 1215 l 521 1215 l 521 1036 l 350 1036 l 350 868 l 521 868 l 521 689 z "},"g":{"ha":1042,"x_min":0,"x_max":868,"o":"m 517 689 l 179 689 l 179 178 l 517 178 l 517 689 m 172 -168 l 517 -168 l 517 0 l 0 0 l 0 868 l 868 868 l 868 689 l 696 689 l 696 -347 l 172 -347 l 172 -168 z "},"h":{"ha":1215,"x_min":0,"x_max":1042,"o":"m 1042 0 l 690 0 l 690 689 l 351 689 l 351 179 l 524 179 l 524 0 l 0 0 l 0 179 l 172 179 l 172 1036 l 0 1036 l 0 1215 l 351 1215 l 351 868 l 869 868 l 869 179 l 1042 179 l 1042 0 z "},"i":{"ha":694,"x_min":0,"x_max":521,"o":"m 521 179 l 521 0 l 0 0 l 0 179 l 171 179 l 171 689 l 0 689 l 0 868 l 350 868 l 350 179 l 521 179 m 350 1036 l 171 1036 l 171 1215 l 350 1215 l 350 1036 z "},"j":{"ha":521,"x_min":0,"x_max":347,"o":"m 0 -168 l 171 -168 l 171 689 l 0 689 l 0 868 l 347 868 l 347 -347 l 0 -347 l 0 -168 m 347 1036 l 171 1036 l 171 1215 l 347 1215 l 347 1036 z "},"k":{"ha":1042,"x_min":0,"x_max":868,"o":"m 868 692 l 696 692 l 696 518 l 524 518 l 524 353 l 696 353 l 696 179 l 868 179 l 868 0 l 517 0 l 517 346 l 351 346 l 351 0 l 0 0 l 0 179 l 172 179 l 172 1036 l 0 1036 l 0 1215 l 351 1215 l 351 697 l 517 697 l 517 871 l 868 871 l 868 692 z "},"l":{"ha":694,"x_min":0,"x_max":521,"o":"m 521 0 l 0 0 l 0 179 l 171 179 l 171 1036 l 0 1036 l 0 1215 l 350 1215 l 350 179 l 521 179 l 521 0 z "},"m":{"ha":1389,"x_min":0,"x_max":1215,"o":"m 353 0 l 0 0 l 0 179 l 172 179 l 172 689 l 0 689 l 0 868 l 1043 868 l 1043 179 l 1215 179 l 1215 0 l 863 0 l 863 689 l 697 689 l 697 0 l 518 0 l 518 689 l 353 689 l 353 0 z "},"n":{"ha":1215,"x_min":0,"x_max":1042,"o":"m 1042 0 l 690 0 l 690 689 l 351 689 l 351 179 l 524 179 l 524 0 l 0 0 l 0 179 l 172 179 l 172 689 l 0 689 l 0 868 l 869 868 l 869 179 l 1042 179 l 1042 0 z "},"o":{"ha":868,"x_min":0,"x_max":694,"o":"m 0 0 l 0 868 l 694 868 l 694 0 l 0 0 m 515 689 l 179 689 l 179 179 l 515 179 l 515 689 z "},"p":{"ha":1042,"x_min":0,"x_max":868,"o":"m 351 0 l 351 -347 l 172 -347 l 172 689 l 0 689 l 0 868 l 868 868 l 868 0 l 351 0 m 689 689 l 351 689 l 351 179 l 689 179 l 689 689 z "},"q":{"ha":1042,"x_min":0,"x_max":868,"o":"m 517 689 l 179 689 l 179 178 l 517 178 l 517 689 m 696 -347 l 517 -347 l 517 0 l 0 0 l 0 868 l 868 868 l 868 689 l 696 689 l 696 -347 z "},"r":{"ha":868,"x_min":0,"x_max":694,"o":"m 350 179 l 522 179 l 522 0 l 0 0 l 0 179 l 172 179 l 172 689 l 0 689 l 0 868 l 694 868 l 694 517 l 515 517 l 515 689 l 350 689 l 350 179 z "},"s":{"ha":868,"x_min":0,"x_max":694,"o":"m 694 689 l 179 689 l 179 524 l 694 524 l 694 0 l 0 0 l 0 179 l 515 179 l 515 344 l 0 344 l 0 868 l 694 868 l 694 689 z "},"t":{"ha":694,"x_min":0,"x_max":521,"o":"m 521 0 l 171 0 l 171 689 l 0 689 l 0 868 l 171 868 l 171 1215 l 350 1215 l 350 868 l 521 868 l 521 689 l 350 689 l 350 179 l 521 179 l 521 0 z "},"u":{"ha":1215,"x_min":0,"x_max":1042,"o":"m 869 179 l 1042 179 l 1042 0 l 172 0 l 172 689 l 0 689 l 0 868 l 351 868 l 351 179 l 690 179 l 690 868 l 869 868 l 869 179 z "},"v":{"ha":1215,"x_min":0,"x_max":1042,"o":"m 1042 689 l 869 689 l 869 172 l 697 172 l 697 0 l 172 0 l 172 689 l 0 689 l 0 868 l 351 868 l 351 179 l 690 179 l 690 868 l 1042 868 l 1042 689 z "},"w":{"ha":1389,"x_min":0,"x_max":1215,"o":"m 1215 689 l 1043 689 l 1043 172 l 869 172 l 869 0 l 172 0 l 172 689 l 0 689 l 0 868 l 353 868 l 353 179 l 518 179 l 518 868 l 697 868 l 697 179 l 863 179 l 863 868 l 1215 868 l 1215 689 z "},"x":{"ha":1042,"x_min":0,"x_max":868,"o":"m 868 0 l 517 0 l 517 172 l 351 172 l 351 0 l 0 0 l 0 179 l 172 179 l 172 351 l 344 351 l 344 517 l 172 517 l 172 689 l 0 689 l 0 868 l 351 868 l 351 696 l 517 696 l 517 868 l 868 868 l 868 689 l 696 689 l 696 517 l 524 517 l 524 351 l 696 351 l 696 179 l 868 179 l 868 0 z "},"y":{"ha":1042,"x_min":0,"x_max":868,"o":"m 868 689 l 696 689 l 696 -347 l 172 -347 l 172 -168 l 517 -168 l 517 0 l 0 0 l 0 868 l 179 868 l 179 179 l 517 179 l 517 868 l 868 868 l 868 689 z "},"z":{"ha":1042,"x_min":0,"x_max":868,"o":"m 868 0 l 0 0 l 0 179 l 172 179 l 172 351 l 344 351 l 344 524 l 517 524 l 517 689 l 179 689 l 179 517 l 0 517 l 0 868 l 868 868 l 868 689 l 696 689 l 696 517 l 524 517 l 524 344 l 351 344 l 351 179 l 689 179 l 689 351 l 868 351 l 868 0 z "},"{":{"ha":690,"x_min":0,"x_max":517,"o":"m 169 1043 l 340 1043 l 340 1215 l 517 1215 l 517 1036 l 346 1036 l 346 179 l 517 179 l 517 0 l 340 0 l 340 172 l 169 172 l 169 528 l 0 528 l 0 699 l 169 699 l 169 1043 z "},"|":{"ha":347,"x_min":0,"x_max":174,"o":"m 174 0 l 0 0 l 0 1215 l 174 1215 l 174 0 z "},"}":{"ha":690,"x_min":0,"x_max":517,"o":"m 517 699 l 517 528 l 347 528 l 347 172 l 176 172 l 176 0 l 0 0 l 0 179 l 171 179 l 171 1036 l 0 1036 l 0 1215 l 176 1215 l 176 1043 l 347 1043 l 347 699 l 517 699 z "},"~":{"ha":808,"x_min":0,"x_max":696,"o":"m 522 846 l 522 1021 l 696 1021 l 696 844 l 521 843 l 521 669 l 175 669 l 175 843 l 0 844 l 0 1021 l 172 1021 l 172 847 l 522 846 z "}," ":{"ha":694,"x_min":0,"x_max":0,"o":""},"¡":{"ha":347,"x_min":0,"x_max":174,"o":"m 0 693 l 0 872 l 174 872 l 174 693 l 0 693 m 0 -343 l 0 526 l 174 526 l 174 -343 l 0 -343 z "},"¢":{"ha":1043,"x_min":174,"x_max":868,"o":"m 610 179 l 689 179 l 689 351 l 868 351 l 868 0 l 610 0 l 610 -175 l 436 -175 l 436 0 l 174 0 l 174 868 l 436 868 l 436 1040 l 610 1040 l 610 868 l 868 868 l 868 517 l 689 517 l 689 689 l 610 689 l 610 179 m 353 689 l 353 179 l 436 179 l 436 689 l 353 689 z "},"£":{"ha":1042,"x_min":0,"x_max":868,"o":"m 351 179 l 689 179 l 689 353 l 868 353 l 868 0 l 172 0 l 172 479 l 0 479 l 0 658 l 172 658 l 172 1215 l 868 1215 l 868 863 l 689 863 l 689 1036 l 351 1036 l 351 658 l 524 658 l 524 479 l 351 479 l 351 179 z "},"¤":{"ha":882,"x_min":0,"x_max":864,"o":"m 689 867 l 689 1040 l 864 1040 l 864 863 l 696 863 l 696 349 l 863 349 l 863 175 l 689 175 l 689 344 l 172 344 l 172 174 l 0 174 l 0 347 l 175 347 l 175 865 l 0 865 l 0 1040 l 172 1040 l 172 867 l 689 867 m 349 694 l 349 521 l 522 521 l 522 694 l 349 694 z "},"¥":{"ha":1042,"x_min":0,"x_max":868,"o":"m 344 694 l 172 694 l 172 867 l 0 867 l 0 1219 l 179 1219 l 179 871 l 351 871 l 351 696 l 517 696 l 517 871 l 689 871 l 689 1219 l 868 1219 l 868 867 l 696 867 l 696 694 l 524 694 l 524 522 l 804 522 l 804 349 l 524 349 l 524 179 l 696 179 l 696 0 l 172 0 l 172 179 l 344 179 l 344 349 l 81 349 l 81 522 l 344 522 l 344 694 z "},"¦":{"ha":347,"x_min":0,"x_max":174,"o":"m 174 690 l 0 690 l 0 1215 l 174 1215 l 174 690 m 174 0 l 0 0 l 0 525 l 174 525 l 174 0 z "},"§":{"ha":869,"x_min":0,"x_max":696,"o":"m 694 -176 l 0 -176 l 0 172 l 179 172 l 179 0 l 515 0 l 515 350 l 0 350 l 1 1350 l 696 1350 l 696 1043 l 517 1043 l 517 1215 l 181 1215 l 181 867 l 696 867 l 694 -176 m 517 522 l 517 694 l 179 694 l 179 522 l 517 522 z "},"¨":{"ha":272,"x_min":0,"x_max":179,"o":"m 179 949 l 0 949 l 0 1128 l 179 1128 l 179 949 z "},"©":{"ha":1739,"x_min":0,"x_max":1565,"o":"m 1217 -347 l 0 -347 l 0 1564 l 1565 1564 l 1565 0 l 1393 0 l 1393 1390 l 176 1388 l 176 -176 l 1217 -176 l 1217 -347 m 1042 0 l 347 0 l 347 1215 l 1042 1215 l 1042 863 l 863 863 l 863 1036 l 526 1036 l 526 179 l 863 179 l 863 353 l 1042 353 l 1042 0 z "},"ª":{"ha":1042,"x_min":0,"x_max":436,"o":"m 258 856 l 90 856 l 90 774 l 258 774 l 258 856 m 349 774 l 435 774 l 435 683 l 0 683 l 0 946 l 258 946 l 258 1028 l 0 1028 l 0 1118 l 349 1118 l 349 774 m 436 642 l 436 553 l 1 553 l 1 642 l 436 642 z "},"«":{"ha":883,"x_min":0,"x_max":865,"o":"m 0 694 l 176 694 l 176 868 l 344 868 l 344 694 l 175 694 l 175 522 l 349 522 l 349 351 l 172 351 l 174 525 l 0 525 l 0 694 m 517 693 l 694 693 l 694 868 l 863 868 l 863 694 l 693 694 l 693 521 l 865 521 l 865 350 l 690 350 l 692 524 l 517 524 l 517 693 z "},"­":{"ha":868,"x_min":0,"x_max":694,"o":"m 694 521 l 0 521 l 0 694 l 694 694 l 694 521 z "},"®":{"ha":1739,"x_min":0,"x_max":1565,"o":"m 1217 -347 l 0 -347 l 0 1564 l 1565 1564 l 1565 0 l 1393 0 l 1393 1390 l 176 1389 l 176 -176 l 1217 -176 l 1217 -347 m 1042 697 l 1042 1036 l 703 1036 l 703 697 l 1042 697 m 1393 0 l 1042 0 l 1042 346 l 869 346 l 869 518 l 703 518 l 703 0 l 351 0 l 351 179 l 524 179 l 524 1036 l 351 1036 l 351 1215 l 1221 1215 l 1221 518 l 1049 518 l 1049 353 l 1221 353 l 1221 179 l 1393 179 l 1393 0 z "},"¯":{"ha":661,"x_min":46,"x_max":614,"o":"m 614 1035 l 46 1035 l 46 1208 l 614 1208 l 614 1035 z "},"°":{"ha":540,"x_min":0,"x_max":521,"o":"m 174 694 l 174 521 l 347 521 l 347 694 l 174 694 m 521 867 l 521 344 l 0 344 l 0 867 l 521 867 z "},"²":{"ha":521,"x_min":0,"x_max":417,"o":"m 417 519 l 0 519 l 0 869 l 310 869 l 310 1038 l 107 1038 l 107 951 l 0 951 l 0 1128 l 417 1128 l 417 781 l 107 781 l 107 610 l 310 610 l 310 697 l 417 697 l 417 519 z "},"³":{"ha":521,"x_min":0,"x_max":417,"o":"m 103 781 l 103 869 l 310 869 l 310 1038 l 107 1038 l 107 951 l 0 951 l 0 1128 l 417 1128 l 417 519 l 0 519 l 0 697 l 107 697 l 107 610 l 310 610 l 310 781 l 103 781 z "},"´":{"ha":442,"x_min":0,"x_max":346,"o":"m 346 1121 l 346 943 l 174 943 l 174 1119 l 0 1119 l 0 1290 l 172 1290 l 172 1121 l 346 1121 z "},"µ":{"ha":1215,"x_min":0,"x_max":1042,"o":"m 172 689 l 0 689 l 0 868 l 351 868 l 351 179 l 690 179 l 690 868 l 869 868 l 869 179 l 1042 179 l 1042 0 l 350 0 l 350 -369 l 171 -369 l 172 689 z "},"¶":{"ha":1064,"x_min":0,"x_max":1044,"o":"m 174 1215 l 1044 1215 l 1044 1044 l 871 1044 l 871 0 l 700 0 l 700 1044 l 525 1044 l 525 0 l 353 0 l 351 693 l 172 693 l 172 868 l 0 868 l 0 1042 l 174 1042 l 174 1215 z "},"·":{"ha":347,"x_min":0,"x_max":174,"o":"m 174 521 l 0 521 l 0 694 l 174 694 l 174 521 z "},"¸":{"ha":521,"x_min":-3,"x_max":350,"o":"m 174 -347 l 174 -178 l -3 -178 l -3 0 l 350 0 l 350 -347 l 174 -347 z "},"¹":{"ha":417,"x_min":0,"x_max":313,"o":"m 0 951 l 0 1042 l 103 1042 l 103 1128 l 210 1128 l 210 610 l 313 610 l 313 519 l 0 519 l 0 610 l 103 610 l 103 951 l 0 951 z "},"º":{"ha":1042,"x_min":0,"x_max":436,"o":"m 436 642 l 436 553 l 1 553 l 1 642 l 436 642 m 0 714 l 0 1149 l 347 1149 l 347 714 l 0 714 m 258 1058 l 90 1058 l 90 804 l 258 804 l 258 1058 z "},"»":{"ha":883,"x_min":0,"x_max":865,"o":"m 692 525 l 693 351 l 517 351 l 517 522 l 690 522 l 690 694 l 521 694 l 521 868 l 689 868 l 689 694 l 865 694 l 865 525 l 692 525 m 174 524 l 175 350 l 0 350 l 0 521 l 172 521 l 172 694 l 3 694 l 3 868 l 171 868 l 171 693 l 349 693 l 349 524 l 174 524 z "},"¼":{"ha":1119,"x_min":0,"x_max":1118,"o":"m 0 904 l 0 994 l 103 994 l 103 1081 l 210 1081 l 210 563 l 313 563 l 313 472 l 0 472 l 0 563 l 103 563 l 103 904 l 0 904 m 364 353 l 364 869 l 536 869 l 536 1215 l 714 1215 l 714 863 l 543 863 l 543 346 l 371 346 l 371 0 l 193 0 l 193 353 l 364 353 m 701 435 l 804 435 l 804 522 l 908 522 l 908 608 l 1015 608 l 1015 263 l 1118 263 l 1118 174 l 1015 174 l 1015 0 l 908 0 l 908 174 l 599 174 l 599 349 l 701 349 l 701 435 m 808 346 l 706 346 l 706 263 l 908 263 l 908 432 l 808 432 l 808 346 z "},"½":{"ha":1014,"x_min":0,"x_max":1013,"o":"m 0 904 l 0 994 l 103 994 l 103 1081 l 210 1081 l 210 563 l 313 563 l 313 472 l 0 472 l 0 563 l 103 563 l 103 904 l 0 904 m 364 353 l 364 869 l 536 869 l 536 1215 l 714 1215 l 714 863 l 543 863 l 543 346 l 371 346 l 371 0 l 193 0 l 193 353 l 364 353 m 1013 0 l 597 0 l 597 347 l 906 347 l 906 517 l 704 517 l 704 431 l 597 431 l 597 607 l 1013 607 l 1013 258 l 704 258 l 704 90 l 906 90 l 906 176 l 1013 176 l 1013 0 z "},"¾":{"ha":1238,"x_min":0,"x_max":1238,"o":"m 482 353 l 482 869 l 654 869 l 654 1215 l 832 1215 l 832 863 l 661 863 l 661 346 l 489 346 l 489 0 l 311 0 l 311 353 l 482 353 m 821 435 l 924 435 l 924 522 l 1026 522 l 1026 608 l 1133 608 l 1133 263 l 1238 263 l 1238 174 l 1133 174 l 1133 0 l 1026 0 l 1026 174 l 717 174 l 717 349 l 821 349 l 821 435 m 928 346 l 824 346 l 824 263 l 1026 263 l 1026 432 l 928 432 l 928 346 m 103 732 l 103 821 l 310 821 l 310 990 l 107 990 l 107 904 l 0 904 l 0 1081 l 417 1081 l 417 472 l 0 472 l 0 649 l 107 649 l 107 563 l 310 563 l 310 732 l 103 732 z "},"¿":{"ha":694,"x_min":0,"x_max":521,"o":"m 521 365 l 521 -332 l 0 -332 l 0 21 l 178 21 l 178 -153 l 343 -153 l 343 186 l 0 186 l 0 538 l 178 538 l 178 365 l 521 365 m 0 704 l 0 883 l 178 883 l 178 704 l 0 704 z "},"À":{"ha":1215,"x_min":0,"x_max":1042,"o":"m 351 1036 l 351 697 l 690 697 l 690 1036 l 351 1036 m 697 1043 l 869 1043 l 869 175 l 1042 175 l 1042 0 l 690 0 l 690 518 l 351 518 l 351 175 l 524 175 l 524 0 l 0 0 l 0 175 l 172 175 l 172 1043 l 344 1043 l 344 1215 l 697 1215 l 697 1043 m 693 1564 l 693 1389 l 519 1389 l 519 1563 l 344 1563 l 344 1733 l 524 1733 l 524 1564 l 693 1564 z "},"Á":{"ha":1215,"x_min":0,"x_max":1042,"o":"m 351 1036 l 351 697 l 690 697 l 690 1036 l 351 1036 m 697 1043 l 869 1043 l 869 179 l 1042 179 l 1042 0 l 690 0 l 690 518 l 351 518 l 351 179 l 524 179 l 524 0 l 0 0 l 0 179 l 172 179 l 172 1043 l 344 1043 l 344 1215 l 697 1215 l 697 1043 m 518 1735 l 696 1735 l 696 1560 l 522 1560 l 522 1385 l 347 1385 l 347 1564 l 518 1564 l 518 1735 z "},"Â":{"ha":1215,"x_min":0,"x_max":1042,"o":"m 351 1036 l 351 697 l 690 697 l 690 1036 l 351 1036 m 697 1043 l 869 1043 l 869 175 l 1042 175 l 1042 0 l 690 0 l 690 518 l 351 518 l 351 175 l 524 175 l 524 0 l 0 0 l 0 175 l 172 175 l 172 1043 l 344 1043 l 344 1215 l 697 1215 l 697 1043 m 347 1563 l 347 1389 l 176 1389 l 176 1563 l 346 1563 l 346 1736 l 694 1736 l 694 1561 l 868 1561 l 868 1388 l 694 1388 l 694 1563 l 347 1563 z "},"Ã":{"ha":1215,"x_min":0,"x_max":1042,"o":"m 697 1043 l 869 1043 l 869 179 l 1042 179 l 1042 0 l 690 0 l 690 518 l 351 518 l 351 179 l 524 179 l 524 0 l 0 0 l 0 179 l 172 179 l 172 1043 l 344 1043 l 344 1215 l 697 1215 l 697 1043 m 351 1035 l 351 696 l 690 696 l 690 1035 l 351 1035 m 347 1388 l 176 1388 l 176 1560 l 350 1560 l 350 1733 l 694 1733 l 694 1561 l 869 1561 l 869 1732 l 1040 1732 l 1040 1560 l 867 1560 l 867 1386 l 696 1389 l 696 1557 l 347 1557 l 347 1388 z "},"Ä":{"ha":1215,"x_min":0,"x_max":1042,"o":"m 690 699 l 690 1038 l 351 1038 l 351 699 l 690 699 m 351 518 l 351 175 l 524 175 l 524 0 l 0 0 l 0 175 l 172 175 l 172 1044 l 344 1044 l 344 1215 l 697 1215 l 697 1044 l 869 1044 l 869 175 l 1042 175 l 1042 0 l 690 0 l 690 518 l 351 518 m 346 1388 l 172 1388 l 172 1563 l 346 1563 l 346 1388 m 869 1388 l 693 1388 l 693 1563 l 869 1563 l 869 1388 z "},"Å":{"ha":1215,"x_min":0,"x_max":1042,"o":"m 351 1036 l 351 697 l 690 697 l 690 1036 l 351 1036 m 697 1043 l 869 1043 l 869 179 l 1042 179 l 1042 0 l 690 0 l 690 518 l 351 518 l 351 179 l 524 179 l 524 0 l 0 0 l 0 179 l 172 179 l 172 1043 l 344 1043 l 344 1215 l 697 1215 l 697 1043 m 349 1738 l 349 1557 l 519 1557 l 519 1738 l 349 1738 m 697 1914 l 697 1389 l 172 1389 l 172 1914 l 697 1914 z "},"Æ":{"ha":1215,"x_min":4,"x_max":1390,"o":"m 350 518 l 350 179 l 528 179 l 528 0 l 4 0 l 4 179 l 176 179 l 176 1043 l 349 1043 l 349 1215 l 1390 1215 l 1390 863 l 1211 863 l 1211 1036 l 869 1036 l 869 697 l 1218 697 l 1218 518 l 869 518 l 869 179 l 1211 179 l 1211 353 l 1390 353 l 1390 0 l 694 0 l 694 518 l 350 518 m 350 1036 l 350 697 l 694 697 l 694 1036 l 350 1036 z "},"Ç":{"ha":868,"x_min":0,"x_max":694,"o":"m 0 0 l 0 1215 l 694 1215 l 694 863 l 515 863 l 515 1036 l 179 1036 l 179 179 l 515 179 l 515 353 l 694 353 l 694 0 l 522 0 l 522 -347 l 346 -347 l 346 -175 l 175 -175 l 175 0 l 0 0 z "},"È":{"ha":1042,"x_min":0,"x_max":868,"o":"m 696 518 l 351 518 l 351 179 l 689 179 l 689 353 l 868 353 l 868 0 l 0 0 l 0 179 l 172 179 l 172 1036 l 0 1036 l 0 1215 l 868 1215 l 868 863 l 689 863 l 689 1036 l 351 1036 l 351 697 l 696 697 l 696 518 m 696 1564 l 696 1385 l 517 1385 l 517 1554 l 346 1554 l 346 1733 l 525 1733 l 525 1564 l 696 1564 z "},"É":{"ha":1042,"x_min":0,"x_max":868,"o":"m 696 518 l 351 518 l 351 179 l 689 179 l 689 353 l 868 353 l 868 0 l 0 0 l 0 179 l 172 179 l 172 1036 l 0 1036 l 0 1215 l 868 1215 l 868 863 l 689 863 l 689 1036 l 351 1036 l 351 697 l 696 697 l 696 518 m 518 1733 l 692 1733 l 692 1561 l 522 1561 l 522 1385 l 343 1385 l 343 1564 l 518 1564 l 518 1733 z "},"Ê":{"ha":1042,"x_min":0,"x_max":869,"o":"m 696 518 l 351 518 l 351 179 l 689 179 l 689 353 l 868 353 l 868 0 l 0 0 l 0 179 l 172 179 l 172 1036 l 0 1036 l 0 1215 l 868 1215 l 868 863 l 689 863 l 689 1036 l 351 1036 l 351 697 l 696 697 l 696 518 m 346 1393 l 178 1393 l 178 1564 l 347 1564 l 347 1739 l 696 1739 l 696 1565 l 869 1565 l 869 1390 l 694 1390 l 694 1565 l 346 1565 l 346 1393 z "},"Ë":{"ha":1042,"x_min":-3,"x_max":868,"o":"m 696 518 l 351 518 l 351 179 l 689 179 l 689 353 l 868 353 l 868 0 l 0 0 l 0 179 l 172 179 l 172 1036 l 0 1036 l 0 1215 l 868 1215 l 868 863 l 689 863 l 689 1036 l 351 1036 l 351 697 l 696 697 l 696 518 m 174 1388 l -3 1388 l -3 1561 l 174 1561 l 174 1388 m 867 1385 l 693 1385 l 693 1563 l 867 1563 l 867 1385 z "},"Ì":{"ha":694,"x_min":0,"x_max":521,"o":"m 350 179 l 521 179 l 521 0 l 0 0 l 0 179 l 171 179 l 171 1036 l 0 1036 l 0 1215 l 521 1215 l 521 1036 l 350 1036 l 350 179 m 347 1564 l 347 1388 l 174 1388 l 174 1563 l 3 1563 l 3 1733 l 172 1733 l 172 1564 l 347 1564 z "},"Í":{"ha":694,"x_min":0,"x_max":521,"o":"m 350 179 l 521 179 l 521 0 l 0 0 l 0 179 l 171 179 l 171 1036 l 0 1036 l 0 1215 l 521 1215 l 521 1036 l 350 1036 l 350 179 m 346 1733 l 521 1733 l 521 1561 l 347 1561 l 347 1385 l 175 1385 l 175 1564 l 346 1564 l 346 1733 z "},"Î":{"ha":700,"x_min":0,"x_max":521,"o":"m 350 179 l 521 179 l 521 0 l 0 0 l 0 179 l 171 179 l 171 1036 l 0 1036 l 0 1215 l 521 1215 l 521 1036 l 350 1036 l 350 179 m 178 1393 l 10 1393 l 10 1564 l 179 1564 l 179 1739 l 347 1738 l 347 1565 l 519 1565 l 519 1390 l 344 1390 l 344 1565 l 178 1565 l 178 1393 z "},"Ï":{"ha":694,"x_min":0,"x_max":521,"o":"m 350 179 l 521 179 l 521 0 l 0 0 l 0 179 l 171 179 l 171 1036 l 0 1036 l 0 1215 l 521 1215 l 521 1036 l 350 1036 l 350 179 m 172 1388 l 1 1388 l 1 1561 l 172 1561 l 172 1388 m 519 1388 l 347 1388 l 347 1561 l 519 1561 l 519 1388 z "},"Ð":{"ha":1042,"x_min":0,"x_max":868,"o":"m 172 1036 l 0 1036 l 0 1215 l 868 1215 l 868 0 l 0 0 l 0 179 l 172 179 l 172 518 l 0 518 l 0 697 l 172 697 l 172 1036 m 351 179 l 689 179 l 689 1036 l 351 1036 l 351 697 l 521 697 l 521 518 l 351 518 l 351 179 z "},"Ñ":{"ha":1389,"x_min":0,"x_max":1215,"o":"m 1215 1036 l 1043 1036 l 1043 0 l 863 0 l 863 172 l 690 172 l 690 518 l 518 518 l 518 863 l 353 863 l 353 0 l 0 0 l 0 179 l 172 179 l 172 1036 l 0 1036 l 0 1215 l 525 1215 l 525 868 l 697 868 l 697 525 l 863 525 l 863 1215 l 1215 1215 l 1215 1036 m 349 1389 l 178 1389 l 178 1561 l 350 1561 l 350 1735 l 694 1735 l 694 1563 l 869 1563 l 869 1733 l 1040 1733 l 1040 1561 l 867 1561 l 867 1388 l 696 1390 l 696 1558 l 349 1558 l 349 1389 z "},"Ò":{"ha":868,"x_min":0,"x_max":694,"o":"m 0 0 l 0 1215 l 694 1215 l 694 0 l 0 0 m 515 1036 l 179 1036 l 179 179 l 515 179 l 515 1036 m 518 1564 l 518 1385 l 346 1385 l 346 1563 l 172 1563 l 172 1733 l 349 1733 l 349 1564 l 518 1564 z "},"Ó":{"ha":868,"x_min":0,"x_max":694,"o":"m 0 0 l 0 1215 l 694 1215 l 694 0 l 0 0 m 515 1036 l 179 1036 l 179 179 l 515 179 l 515 1036 m 346 1733 l 517 1733 l 517 1560 l 346 1560 l 346 1385 l 172 1385 l 172 1564 l 346 1564 l 346 1733 z "},"Ô":{"ha":885,"x_min":0,"x_max":696,"o":"m 1 0 l 1 1215 l 696 1215 l 696 0 l 1 0 m 517 1036 l 181 1036 l 181 179 l 517 179 l 517 1036 m 172 1385 l 0 1385 l 0 1561 l 175 1563 l 175 1736 l 521 1736 l 521 1563 l 696 1561 l 696 1385 l 522 1385 l 522 1560 l 172 1558 l 172 1385 z "},"Õ":{"ha":868,"x_min":0,"x_max":867,"o":"m 0 0 l 0 1215 l 694 1215 l 694 0 l 0 0 m 515 1036 l 179 1036 l 179 179 l 515 179 l 515 1036 m 174 1390 l 3 1390 l 3 1561 l 176 1561 l 176 1735 l 521 1735 l 521 1563 l 696 1563 l 696 1735 l 867 1735 l 867 1563 l 693 1563 l 693 1389 l 522 1392 l 522 1560 l 174 1560 l 174 1390 z "},"Ö":{"ha":868,"x_min":0,"x_max":694,"o":"m 0 0 l 0 1215 l 694 1215 l 694 0 l 0 0 m 515 1036 l 179 1036 l 179 179 l 515 179 l 515 1036 m 179 1383 l 0 1383 l 0 1563 l 179 1563 l 179 1383 m 694 1383 l 515 1383 l 515 1563 l 694 1563 l 694 1383 z "},"×":{"ha":1057,"x_min":79,"x_max":819,"o":"m 819 851 l 576 608 l 819 364 l 693 238 l 450 481 l 206 238 l 79 364 l 322 608 l 79 851 l 206 978 l 450 735 l 693 978 l 819 851 z "},"Ù":{"ha":1215,"x_min":0,"x_max":1042,"o":"m 869 179 l 1042 179 l 1042 0 l 172 0 l 172 1036 l 0 1036 l 0 1215 l 351 1215 l 351 179 l 690 179 l 690 1215 l 869 1215 l 869 179 m 693 1563 l 693 1385 l 521 1385 l 521 1561 l 347 1561 l 347 1732 l 519 1732 l 519 1563 l 693 1563 z "},"Ú":{"ha":1215,"x_min":0,"x_max":1042,"o":"m 869 179 l 1042 179 l 1042 0 l 172 0 l 172 1036 l 0 1036 l 0 1215 l 351 1215 l 351 179 l 690 179 l 690 1215 l 869 1215 l 869 179 m 524 1735 l 696 1735 l 696 1564 l 522 1564 l 522 1388 l 350 1388 l 350 1565 l 524 1565 l 524 1735 z "},"Û":{"ha":1215,"x_min":0,"x_max":1042,"o":"m 869 179 l 1042 179 l 1042 0 l 172 0 l 172 1036 l 0 1036 l 0 1215 l 351 1215 l 351 179 l 690 179 l 690 1215 l 869 1215 l 869 179 m 347 1393 l 179 1393 l 179 1564 l 350 1564 l 350 1739 l 699 1739 l 699 1565 l 871 1565 l 871 1390 l 696 1390 l 696 1565 l 347 1565 l 347 1393 z "},"Ü":{"ha":1215,"x_min":0,"x_max":1042,"o":"m 869 179 l 1042 179 l 1042 0 l 172 0 l 172 1036 l 0 1036 l 0 1215 l 351 1215 l 351 179 l 690 179 l 690 1215 l 869 1215 l 869 179 m 869 1383 l 690 1383 l 690 1563 l 869 1563 l 869 1383 m 351 1383 l 172 1383 l 172 1563 l 351 1563 l 351 1383 z "},"Ý":{"ha":1042,"x_min":0,"x_max":868,"o":"m 868 863 l 696 863 l 696 689 l 524 689 l 524 179 l 696 179 l 696 0 l 172 0 l 172 179 l 344 179 l 344 689 l 172 689 l 172 863 l 0 863 l 0 1215 l 179 1215 l 179 868 l 351 868 l 351 697 l 517 697 l 517 868 l 689 868 l 689 1215 l 868 1215 l 868 863 m 524 1735 l 696 1735 l 696 1564 l 522 1564 l 522 1388 l 350 1388 l 350 1565 l 524 1565 l 524 1735 z "},"ß":{"ha":868,"x_min":0,"x_max":694,"o":"m 694 351 l 694 -347 l 172 -347 l 172 -168 l 515 -168 l 515 172 l 179 172 l 179 0 l 0 0 l 0 1389 l 350 1389 l 350 1210 l 179 1210 l 179 1043 l 522 1043 l 522 351 l 694 351 m 344 864 l 179 864 l 179 351 l 344 351 l 344 864 z "},"à":{"ha":1042,"x_min":0,"x_max":868,"o":"m 517 344 l 179 344 l 179 179 l 517 179 l 517 344 m 696 179 l 868 179 l 868 0 l 0 0 l 0 524 l 517 524 l 517 689 l 0 689 l 0 868 l 696 868 l 696 179 m 519 1218 l 519 1040 l 347 1040 l 347 1215 l 174 1215 l 174 1388 l 346 1388 l 346 1218 l 519 1218 z "},"á":{"ha":1042,"x_min":0,"x_max":868,"o":"m 517 344 l 179 344 l 179 179 l 517 179 l 517 344 m 696 179 l 868 179 l 868 0 l 0 0 l 0 524 l 517 524 l 517 689 l 0 689 l 0 868 l 696 868 l 696 179 m 350 1393 l 522 1393 l 522 1222 l 349 1222 l 349 1046 l 176 1046 l 176 1224 l 350 1224 l 350 1393 z "},"â":{"ha":1042,"x_min":0,"x_max":868,"o":"m 517 344 l 179 344 l 179 179 l 517 179 l 517 344 m 696 179 l 868 179 l 868 0 l 0 0 l 0 524 l 517 524 l 517 689 l 0 689 l 0 868 l 696 868 l 696 179 m 518 1218 l 518 1393 l 693 1393 l 693 1218 l 519 1218 l 519 1044 l 171 1044 l 171 1221 l 1 1221 l 1 1392 l 169 1392 l 169 1218 l 518 1218 z "},"ã":{"ha":1042,"x_min":0,"x_max":868,"o":"m 517 344 l 179 344 l 179 179 l 517 179 l 517 344 m 696 179 l 868 179 l 868 0 l 0 0 l 0 524 l 517 524 l 517 689 l 0 689 l 0 868 l 696 868 l 696 179 m 171 1043 l 0 1043 l 0 1215 l 174 1215 l 174 1388 l 517 1388 l 517 1215 l 693 1215 l 693 1388 l 864 1388 l 864 1215 l 690 1215 l 690 1043 l 519 1044 l 519 1213 l 171 1213 l 171 1043 z "},"ä":{"ha":1042,"x_min":0,"x_max":868,"o":"m 517 346 l 179 346 l 179 179 l 517 179 l 517 346 m 696 179 l 868 179 l 868 0 l 0 0 l 0 525 l 517 525 l 517 689 l 0 689 l 0 868 l 696 868 l 696 179 m 179 1036 l 0 1036 l 0 1215 l 179 1215 l 179 1036 m 696 1036 l 517 1036 l 517 1215 l 696 1215 l 696 1036 z "},"å":{"ha":1042,"x_min":0,"x_max":868,"o":"m 517 344 l 179 344 l 179 179 l 517 179 l 517 344 m 696 179 l 868 179 l 868 0 l 0 0 l 0 524 l 517 524 l 517 689 l 0 689 l 0 868 l 696 868 l 696 179 m 176 1389 l 176 1210 l 347 1210 l 347 1389 l 176 1389 m 525 1565 l 525 1040 l 0 1040 l 0 1565 l 525 1565 z "},"æ":{"ha":1303,"x_min":0,"x_max":1211,"o":"m 0 689 l 0 868 l 1211 868 l 1211 344 l 696 344 l 696 179 l 1211 179 l 1211 0 l 0 0 l 0 524 l 517 524 l 517 689 l 0 689 m 517 344 l 179 344 l 179 179 l 517 179 l 517 344 m 696 689 l 696 524 l 1032 524 l 1032 689 l 696 689 z "},"ç":{"ha":868,"x_min":0,"x_max":694,"o":"m 0 0 l 0 868 l 694 868 l 694 517 l 515 517 l 515 689 l 179 689 l 179 179 l 515 179 l 515 351 l 694 351 l 694 0 l 522 0 l 522 -347 l 346 -347 l 346 -175 l 175 -175 l 175 0 l 0 0 z "},"è":{"ha":868,"x_min":0,"x_max":694,"o":"m 694 0 l 0 0 l 0 179 l 515 179 l 515 344 l 0 344 l 0 868 l 694 868 l 694 0 m 179 524 l 515 524 l 515 689 l 179 689 l 179 524 m 519 1218 l 519 1040 l 347 1040 l 347 1215 l 174 1215 l 174 1388 l 346 1388 l 346 1218 l 519 1218 z "},"é":{"ha":868,"x_min":0,"x_max":694,"o":"m 694 868 l 694 344 l 179 344 l 179 179 l 694 179 l 694 0 l 0 0 l 0 868 l 694 868 m 179 689 l 179 524 l 515 524 l 515 689 l 179 689 m 349 1388 l 521 1388 l 521 1215 l 347 1215 l 347 1040 l 175 1040 l 175 1218 l 349 1218 l 349 1388 z "},"ê":{"ha":868,"x_min":0,"x_max":696,"o":"m 694 868 l 694 344 l 179 344 l 179 179 l 694 179 l 694 0 l 0 0 l 0 868 l 694 868 m 179 689 l 179 524 l 515 524 l 515 689 l 179 689 m 172 1040 l 4 1040 l 4 1211 l 175 1211 l 175 1388 l 522 1388 l 522 1214 l 696 1214 l 696 1039 l 521 1039 l 521 1214 l 172 1214 l 172 1040 z "},"ë":{"ha":868,"x_min":-1,"x_max":694,"o":"m 694 868 l 694 344 l 179 344 l 179 179 l 694 179 l 694 0 l 0 0 l 0 868 l 694 868 m 179 689 l 179 524 l 515 524 l 515 689 l 179 689 m 178 1036 l -1 1036 l -1 1215 l 178 1215 l 178 1036 m 694 1036 l 515 1036 l 515 1215 l 694 1215 l 694 1036 z "},"ì":{"ha":694,"x_min":-1,"x_max":521,"o":"m 521 179 l 521 0 l 0 0 l 0 179 l 171 179 l 171 689 l 0 689 l 0 868 l 350 868 l 350 179 l 521 179 m 344 1218 l 344 1040 l 172 1040 l 172 1215 l -1 1215 l -1 1386 l 171 1386 l 171 1218 l 344 1218 z "},"í":{"ha":694,"x_min":0,"x_max":521,"o":"m 521 179 l 521 0 l 0 0 l 0 179 l 171 179 l 171 689 l 0 689 l 0 868 l 350 868 l 350 179 l 521 179 m 344 1389 l 517 1389 l 517 1218 l 343 1218 l 343 1043 l 171 1043 l 171 1221 l 344 1221 l 344 1389 z "},"î":{"ha":704,"x_min":-172,"x_max":524,"o":"m 522 179 l 522 0 l 1 0 l 1 179 l 172 179 l 172 689 l 1 689 l 1 868 l 351 868 l 351 179 l 522 179 m 350 1217 l 350 1392 l 524 1392 l 524 1215 l 349 1214 l 349 1040 l 3 1040 l 3 1214 l -172 1215 l -172 1392 l 0 1392 l 0 1218 l 350 1217 z "},"ï":{"ha":693,"x_min":-3,"x_max":521,"o":"m 521 179 l 521 0 l 0 0 l 0 179 l 171 179 l 171 689 l 0 689 l 0 868 l 350 868 l 350 179 l 521 179 m 174 1042 l -3 1042 l -3 1215 l 174 1215 l 174 1042 m 519 1042 l 346 1042 l 346 1215 l 519 1215 l 519 1042 z "},"ð":{"ha":854,"x_min":-1,"x_max":694,"o":"m 693 874 l 694 0 l 0 0 l 0 699 l 517 699 l 517 868 l 346 868 l 346 1040 l 176 1040 l 176 867 l 0 867 l 0 1046 l 175 1046 l 175 1213 l -1 1213 l -1 1390 l 175 1390 l 175 1215 l 347 1215 l 347 1389 l 517 1389 l 517 1211 l 349 1211 l 349 1047 l 522 1047 l 522 874 l 693 874 m 517 518 l 181 518 l 181 174 l 517 174 l 517 518 z "},"ñ":{"ha":1215,"x_min":0,"x_max":1042,"o":"m 1042 0 l 690 0 l 690 689 l 351 689 l 351 179 l 524 179 l 524 0 l 0 0 l 0 179 l 172 179 l 172 689 l 0 689 l 0 868 l 869 868 l 869 179 l 1042 179 l 1042 0 m 171 1043 l 0 1043 l 0 1215 l 174 1215 l 174 1388 l 517 1388 l 517 1215 l 693 1215 l 693 1388 l 864 1388 l 864 1215 l 690 1215 l 690 1043 l 519 1044 l 519 1213 l 171 1213 l 171 1043 z "},"ò":{"ha":868,"x_min":0,"x_max":694,"o":"m 0 0 l 0 868 l 694 868 l 694 0 l 0 0 m 515 689 l 179 689 l 179 179 l 515 179 l 515 689 m 519 1221 l 519 1043 l 347 1043 l 347 1218 l 174 1218 l 174 1389 l 346 1389 l 346 1221 l 519 1221 z "},"ó":{"ha":868,"x_min":0,"x_max":694,"o":"m 0 0 l 0 868 l 694 868 l 694 0 l 0 0 m 515 689 l 179 689 l 179 179 l 515 179 l 515 689 m 349 1386 l 521 1386 l 521 1215 l 347 1215 l 347 1040 l 175 1040 l 175 1218 l 349 1218 l 349 1386 z "},"ô":{"ha":868,"x_min":-4,"x_max":694,"o":"m 0 0 l 0 868 l 694 868 l 694 0 l 0 0 m 515 689 l 179 689 l 179 179 l 515 179 l 515 689 m 169 1218 l 169 1043 l -4 1043 l -4 1221 l 171 1221 l 171 1394 l 517 1394 l 517 1221 l 692 1221 l 692 1043 l 519 1043 l 519 1218 l 169 1218 z "},"õ":{"ha":868,"x_min":0,"x_max":864,"o":"m 0 0 l 0 868 l 694 868 l 694 0 l 0 0 m 515 689 l 179 689 l 179 179 l 515 179 l 515 689 m 171 1043 l 0 1043 l 0 1215 l 174 1215 l 174 1388 l 517 1388 l 517 1215 l 693 1215 l 693 1388 l 864 1388 l 864 1215 l 690 1215 l 690 1043 l 519 1044 l 519 1213 l 171 1213 l 171 1043 z "},"ö":{"ha":868,"x_min":0,"x_max":694,"o":"m 0 0 l 0 868 l 694 868 l 694 0 l 0 0 m 515 689 l 179 689 l 179 179 l 515 179 l 515 689 m 175 1040 l 0 1040 l 0 1215 l 175 1215 l 175 1040 m 694 1040 l 518 1040 l 518 1215 l 694 1215 l 694 1040 z "},"÷":{"ha":1042,"x_min":0,"x_max":868,"o":"m 868 518 l 0 518 l 0 697 l 868 697 l 868 518 m 524 174 l 344 174 l 344 353 l 524 353 l 524 174 m 524 863 l 344 863 l 344 1042 l 524 1042 l 524 863 z "},"ø":{"ha":868,"x_min":0,"x_max":694,"o":"m 0 0 l 0 868 l 354 868 l 354 1011 l 533 1011 l 533 868 l 694 868 l 694 0 l 338 0 l 338 -151 l 158 -151 l 158 0 l 0 0 m 256 289 l 256 613 l 354 613 l 354 689 l 179 689 l 179 289 l 256 289 m 515 179 l 515 592 l 435 592 l 435 268 l 338 268 l 338 179 l 515 179 z "},"ù":{"ha":1215,"x_min":0,"x_max":1042,"o":"m 869 179 l 1042 179 l 1042 0 l 172 0 l 172 689 l 0 689 l 0 868 l 351 868 l 351 179 l 690 179 l 690 868 l 869 868 l 869 179 m 692 1218 l 692 1040 l 519 1040 l 519 1215 l 344 1215 l 344 1388 l 517 1388 l 517 1218 l 692 1218 z "},"ú":{"ha":1215,"x_min":0,"x_max":1042,"o":"m 869 179 l 1042 179 l 1042 0 l 172 0 l 172 689 l 0 689 l 0 868 l 351 868 l 351 179 l 690 179 l 690 868 l 869 868 l 869 179 m 524 1388 l 696 1388 l 696 1215 l 522 1215 l 522 1040 l 350 1040 l 350 1218 l 524 1218 l 524 1388 z "},"û":{"ha":1215,"x_min":0,"x_max":1042,"o":"m 869 179 l 1042 179 l 1042 0 l 172 0 l 172 689 l 0 689 l 0 868 l 351 868 l 351 179 l 690 179 l 690 868 l 869 868 l 869 179 m 347 1044 l 175 1044 l 175 1221 l 349 1222 l 349 1396 l 696 1396 l 696 1222 l 871 1221 l 871 1044 l 697 1044 l 697 1219 l 347 1218 l 347 1044 z "},"ü":{"ha":1215,"x_min":0,"x_max":1042,"o":"m 869 179 l 1042 179 l 1042 0 l 172 0 l 172 689 l 0 689 l 0 868 l 351 868 l 351 179 l 690 179 l 690 868 l 869 868 l 869 179 m 351 1036 l 172 1036 l 172 1215 l 351 1215 l 351 1036 m 869 1036 l 690 1036 l 690 1215 l 869 1215 l 869 1036 z "},"ý":{"ha":1042,"x_min":0,"x_max":868,"o":"m 868 689 l 696 689 l 696 -347 l 172 -347 l 172 -168 l 517 -168 l 517 0 l 0 0 l 0 868 l 179 868 l 179 179 l 517 179 l 517 868 l 868 868 l 868 689 m 517 1385 l 696 1385 l 696 1206 l 525 1206 l 525 1036 l 346 1036 l 346 1215 l 517 1215 l 517 1385 z "},"þ":{"ha":1106,"x_min":1,"x_max":869,"o":"m 349 -350 l 1 -350 l 1 -176 l 172 -176 l 172 1036 l 1 1036 l 1 1215 l 349 1215 l 349 868 l 869 868 l 869 0 l 349 0 l 349 -350 m 349 179 l 693 179 l 693 689 l 349 689 l 349 179 z "},"ÿ":{"ha":1042,"x_min":0,"x_max":868,"o":"m 172 -168 l 517 -168 l 517 0 l 0 0 l 0 868 l 179 868 l 179 179 l 517 179 l 517 868 l 868 868 l 868 689 l 696 689 l 696 -347 l 172 -347 l 172 -168 m 179 1036 l 0 1036 l 0 1215 l 179 1215 l 179 1036 m 696 1036 l 517 1036 l 517 1215 l 696 1215 l 696 1036 z "},"Ā":{"ha":1215,"x_min":0,"x_max":1042,"o":"m 351 1036 l 351 697 l 690 697 l 690 1036 l 351 1036 m 697 1043 l 869 1043 l 869 179 l 1042 179 l 1042 0 l 690 0 l 690 518 l 351 518 l 351 179 l 524 179 l 524 0 l 0 0 l 0 179 l 172 179 l 172 1043 l 344 1043 l 344 1215 l 697 1215 l 697 1043 m 868 1383 l 171 1383 l 171 1557 l 868 1557 l 868 1383 z "},"ā":{"ha":1042,"x_min":0,"x_max":868,"o":"m 517 344 l 179 344 l 179 179 l 517 179 l 517 344 m 696 179 l 868 179 l 868 0 l 0 0 l 0 524 l 517 524 l 517 689 l 0 689 l 0 868 l 696 868 l 696 179 m 692 1039 l 1 1039 l 1 1208 l 692 1208 l 692 1039 z "},"Ă":{"ha":1215,"x_min":0,"x_max":1042,"o":"m 351 1036 l 351 697 l 690 697 l 690 1036 l 351 1036 m 697 1043 l 869 1043 l 869 175 l 1042 175 l 1042 0 l 690 0 l 690 518 l 351 518 l 351 175 l 524 175 l 524 0 l 0 0 l 0 175 l 172 175 l 172 1043 l 344 1043 l 344 1215 l 697 1215 l 697 1043 m 694 1563 l 694 1738 l 868 1738 l 868 1561 l 693 1560 l 693 1386 l 347 1386 l 347 1560 l 172 1561 l 172 1738 l 344 1738 l 344 1564 l 694 1563 z "},"ă":{"ha":1042,"x_min":0,"x_max":868,"o":"m 517 344 l 179 344 l 179 179 l 517 179 l 517 344 m 696 179 l 868 179 l 868 0 l 0 0 l 0 524 l 517 524 l 517 689 l 0 689 l 0 868 l 696 868 l 696 179 m 519 1218 l 519 1393 l 694 1393 l 694 1218 l 521 1218 l 521 1044 l 174 1044 l 174 1221 l 3 1221 l 3 1392 l 171 1392 l 171 1218 l 519 1218 z "},"Ą":{"ha":1215,"x_min":0,"x_max":1042,"o":"m 1042 -172 l 869 -172 l 869 -344 l 690 -344 l 690 518 l 351 518 l 351 179 l 524 179 l 524 0 l 0 0 l 0 179 l 172 179 l 172 1043 l 344 1043 l 344 1215 l 697 1215 l 697 1043 l 869 1043 l 869 179 l 1042 179 l 1042 -172 m 351 1036 l 351 697 l 690 697 l 690 1036 l 351 1036 z "},"ą":{"ha":1042,"x_min":0,"x_max":868,"o":"m 0 0 l 0 524 l 517 524 l 517 689 l 0 689 l 0 868 l 696 868 l 696 179 l 868 179 l 867 -175 l 696 -175 l 696 -344 l 519 -344 l 519 0 l 0 0 m 517 344 l 179 344 l 179 179 l 517 179 l 517 344 z "},"Ć":{"ha":868,"x_min":0,"x_max":694,"o":"m 694 0 l 0 0 l 0 1215 l 694 1215 l 694 863 l 515 863 l 515 1036 l 179 1036 l 179 179 l 515 179 l 515 353 l 694 353 l 694 0 m 343 1733 l 522 1733 l 522 1563 l 347 1563 l 347 1385 l 174 1385 l 174 1564 l 343 1564 l 343 1733 z "},"ć":{"ha":868,"x_min":0,"x_max":694,"o":"m 179 179 l 515 179 l 515 351 l 694 351 l 694 0 l 0 0 l 0 868 l 694 868 l 694 517 l 515 517 l 515 689 l 179 689 l 179 179 m 349 1390 l 521 1390 l 521 1219 l 347 1219 l 347 1044 l 175 1044 l 175 1222 l 349 1222 l 349 1390 z "},"Č":{"ha":868,"x_min":0,"x_max":694,"o":"m 694 0 l 0 0 l 0 1215 l 694 1215 l 694 863 l 515 863 l 515 1036 l 179 1036 l 179 179 l 515 179 l 515 353 l 694 353 l 694 0 m 521 1563 l 521 1736 l 694 1736 l 694 1563 l 521 1563 l 521 1382 l 174 1382 l 174 1564 l 0 1564 l 0 1738 l 172 1738 l 172 1563 l 521 1563 z "},"č":{"ha":868,"x_min":0,"x_max":694,"o":"m 179 179 l 515 179 l 515 351 l 694 351 l 694 0 l 0 0 l 0 868 l 694 868 l 694 517 l 515 517 l 515 689 l 179 689 l 179 179 m 517 1217 l 517 1392 l 692 1392 l 692 1217 l 519 1217 l 519 1043 l 171 1043 l 171 1219 l 1 1219 l 1 1390 l 169 1390 l 169 1217 l 517 1217 z "},"Ď":{"ha":1042,"x_min":0,"x_max":868,"o":"m 868 0 l 0 0 l 0 179 l 172 179 l 172 1036 l 0 1036 l 0 1215 l 868 1215 l 868 0 m 689 1036 l 351 1036 l 351 179 l 689 179 l 689 1036 m 521 1561 l 521 1736 l 693 1736 l 693 1563 l 518 1563 l 518 1389 l 175 1388 l 175 1564 l 4 1564 l 4 1735 l 172 1735 l 172 1561 l 521 1561 z "},"ď":{"ha":1232,"x_min":0,"x_max":1214,"o":"m 179 179 l 517 179 l 517 690 l 179 690 l 179 179 m 344 1036 l 344 1215 l 696 1215 l 696 179 l 868 179 l 868 0 l 0 0 l 0 868 l 517 868 l 517 1036 l 344 1036 m 1038 696 l 1038 1038 l 867 1038 l 867 1215 l 1214 1215 l 1214 696 l 1038 696 z "},"Đ":{"ha":1042,"x_min":0,"x_max":868,"o":"m 172 1036 l 0 1036 l 0 1215 l 868 1215 l 868 0 l 0 0 l 0 179 l 172 179 l 172 518 l 0 518 l 0 697 l 172 697 l 172 1036 m 351 179 l 689 179 l 689 1036 l 351 1036 l 351 697 l 521 697 l 521 518 l 351 518 l 351 179 z "},"đ":{"ha":1042,"x_min":0,"x_max":868,"o":"m 518 1389 l 696 1389 l 696 1215 l 868 1215 l 868 1033 l 696 1033 l 696 179 l 868 179 l 868 0 l 0 0 l 0 868 l 517 868 l 517 1033 l 174 1033 l 174 1215 l 518 1215 l 518 1389 m 179 179 l 517 179 l 517 689 l 179 689 l 179 179 z "},"Ē":{"ha":1042,"x_min":0,"x_max":868,"o":"m 696 518 l 351 518 l 351 179 l 689 179 l 689 353 l 868 353 l 868 0 l 0 0 l 0 179 l 172 179 l 172 1036 l 0 1036 l 0 1215 l 868 1215 l 868 863 l 689 863 l 689 1036 l 351 1036 l 351 697 l 696 697 l 696 518 m 696 1383 l 0 1383 l 0 1557 l 696 1557 l 696 1383 z "},"ē":{"ha":868,"x_min":0,"x_max":694,"o":"m 694 868 l 694 344 l 179 344 l 179 179 l 694 179 l 694 0 l 0 0 l 0 868 l 694 868 m 179 689 l 179 524 l 515 524 l 515 689 l 179 689 m 694 1040 l 0 1040 l 0 1208 l 694 1208 l 694 1040 z "},"Ė":{"ha":1042,"x_min":0,"x_max":868,"o":"m 696 518 l 351 518 l 351 179 l 689 179 l 689 353 l 868 353 l 868 0 l 0 0 l 0 179 l 172 179 l 172 1036 l 0 1036 l 0 1215 l 868 1215 l 868 863 l 689 863 l 689 1036 l 351 1036 l 351 697 l 696 697 l 696 518 m 519 1383 l 340 1383 l 340 1563 l 519 1563 l 519 1383 z "},"ė":{"ha":868,"x_min":0,"x_max":694,"o":"m 694 868 l 694 344 l 179 344 l 179 179 l 694 179 l 694 0 l 0 0 l 0 868 l 694 868 m 179 689 l 179 524 l 515 524 l 515 689 l 179 689 m 347 1042 l 174 1042 l 174 1215 l 347 1215 l 347 1042 z "},"Ę":{"ha":1042,"x_min":0,"x_max":868,"o":"m 0 0 l 0 179 l 172 179 l 172 1036 l 0 1036 l 0 1215 l 868 1215 l 868 863 l 689 863 l 689 1036 l 351 1036 l 351 697 l 696 697 l 696 518 l 351 518 l 351 179 l 689 179 l 689 353 l 868 353 l 868 -174 l 694 -174 l 694 -351 l 522 -351 l 522 0 l 0 0 z "},"ę":{"ha":868,"x_min":0,"x_max":694,"o":"m 0 0 l 0 868 l 694 868 l 694 344 l 179 344 l 179 179 l 694 179 l 694 0 l 519 0 l 519 -175 l 349 -175 l 349 -344 l 172 -344 l 172 0 l 0 0 m 179 689 l 179 524 l 515 524 l 515 689 l 179 689 z "},"Ě":{"ha":1042,"x_min":0,"x_max":868,"o":"m 696 518 l 351 518 l 351 179 l 689 179 l 689 353 l 868 353 l 868 0 l 0 0 l 0 179 l 172 179 l 172 1036 l 0 1036 l 0 1215 l 868 1215 l 868 863 l 689 863 l 689 1036 l 351 1036 l 351 697 l 696 697 l 696 518 m 692 1565 l 692 1740 l 867 1740 l 867 1565 l 693 1565 l 693 1392 l 346 1392 l 346 1567 l 175 1567 l 175 1738 l 343 1738 l 343 1565 l 692 1565 z "},"ě":{"ha":868,"x_min":0,"x_max":694,"o":"m 694 868 l 694 344 l 179 344 l 179 179 l 694 179 l 694 0 l 0 0 l 0 868 l 694 868 m 179 689 l 179 524 l 515 524 l 515 689 l 179 689 m 517 1213 l 517 1388 l 692 1388 l 692 1213 l 518 1213 l 518 1039 l 169 1039 l 169 1215 l 0 1215 l 0 1386 l 168 1386 l 168 1213 l 517 1213 z "},"Ğ":{"ha":868,"x_min":0,"x_max":696,"o":"m 694 0 l 0 0 l 0 1215 l 694 1215 l 694 863 l 515 863 l 515 1036 l 179 1036 l 179 179 l 515 179 l 515 518 l 344 518 l 344 697 l 694 697 l 694 0 m 522 1560 l 522 1733 l 696 1733 l 696 1557 l 521 1558 l 521 1383 l 175 1383 l 175 1557 l 0 1558 l 0 1735 l 172 1735 l 172 1560 l 522 1560 z "},"ğ":{"ha":1042,"x_min":0,"x_max":868,"o":"m 517 689 l 179 689 l 179 178 l 517 178 l 517 689 m 172 -168 l 517 -168 l 517 0 l 0 0 l 0 868 l 868 868 l 868 689 l 696 689 l 696 -347 l 172 -347 l 172 -168 m 522 1221 l 522 1394 l 696 1394 l 696 1218 l 521 1218 l 521 1044 l 175 1044 l 175 1218 l 0 1219 l 0 1396 l 172 1396 l 172 1221 l 522 1221 z "},"Ģ":{"ha":868,"x_min":0,"x_max":694,"o":"m 694 0 l 0 0 l 0 1215 l 694 1215 l 694 863 l 515 863 l 515 1036 l 179 1036 l 179 179 l 515 179 l 515 518 l 344 518 l 344 697 l 694 697 l 694 0 m 349 -696 l 349 -353 l 178 -353 l 178 -175 l 525 -175 l 525 -696 l 349 -696 z "},"ģ":{"ha":1042,"x_min":0,"x_max":868,"o":"m 517 689 l 179 689 l 179 178 l 517 178 l 517 689 m 172 -168 l 517 -168 l 517 0 l 0 0 l 0 868 l 868 868 l 868 689 l 696 689 l 696 -347 l 172 -347 l 172 -168 m 357 1565 l 357 1222 l 528 1222 l 528 1044 l 181 1044 l 181 1565 l 357 1565 z "},"Ī":{"ha":694,"x_min":0,"x_max":521,"o":"m 350 179 l 521 179 l 521 0 l 0 0 l 0 179 l 171 179 l 171 1036 l 0 1036 l 0 1215 l 521 1215 l 521 1036 l 350 1036 l 350 179 m 519 1389 l 1 1389 l 1 1557 l 519 1557 l 519 1389 z "},"ī":{"ha":694,"x_min":-174,"x_max":521,"o":"m 521 179 l 521 0 l 0 0 l 0 179 l 171 179 l 171 689 l 0 689 l 0 868 l 350 868 l 350 179 l 521 179 m 519 1042 l -174 1042 l -174 1213 l 519 1213 l 519 1042 z "},"Į":{"ha":694,"x_min":0,"x_max":521,"o":"m 0 0 l 0 179 l 171 179 l 171 1036 l 0 1036 l 0 1215 l 521 1215 l 521 1036 l 350 1036 l 350 179 l 521 179 l 521 -175 l 347 -175 l 347 -347 l 171 -347 l 171 0 l 0 0 z "},"į":{"ha":694,"x_min":0,"x_max":521,"o":"m 0 0 l 0 179 l 171 179 l 171 689 l 0 689 l 0 868 l 350 868 l 350 179 l 521 179 l 521 -175 l 349 -176 l 349 -347 l 172 -347 l 172 0 l 0 0 m 350 1036 l 171 1036 l 171 1215 l 350 1215 l 350 1036 z "},"İ":{"ha":694,"x_min":0,"x_max":521,"o":"m 350 179 l 521 179 l 521 0 l 0 0 l 0 179 l 171 179 l 171 1036 l 0 1036 l 0 1215 l 521 1215 l 521 1036 l 350 1036 l 350 179 m 349 1388 l 175 1388 l 175 1563 l 349 1563 l 349 1388 z "},"ı":{"ha":694,"x_min":0,"x_max":521,"o":"m 521 179 l 521 0 l 0 0 l 0 179 l 171 179 l 171 689 l 0 689 l 0 868 l 350 868 l 350 179 l 521 179 z "},"Ķ":{"ha":1215,"x_min":0,"x_max":1042,"o":"m 1042 0 l 690 0 l 690 346 l 518 346 l 518 518 l 351 518 l 351 0 l 0 0 l 0 179 l 172 179 l 172 1036 l 0 1036 l 0 1215 l 351 1215 l 351 697 l 518 697 l 518 868 l 690 868 l 690 1215 l 1042 1215 l 1042 1036 l 869 1036 l 869 863 l 697 863 l 697 689 l 524 689 l 524 525 l 697 525 l 697 353 l 869 353 l 869 179 l 1042 179 l 1042 0 m 515 -694 l 515 -351 l 344 -351 l 344 -174 l 692 -174 l 692 -694 l 515 -694 z "},"ķ":{"ha":1042,"x_min":0,"x_max":868,"o":"m 868 692 l 696 692 l 696 518 l 524 518 l 524 353 l 696 353 l 696 179 l 868 179 l 868 0 l 517 0 l 517 346 l 351 346 l 351 0 l 0 0 l 0 179 l 172 179 l 172 1036 l 0 1036 l 0 1215 l 351 1215 l 351 697 l 517 697 l 517 871 l 868 871 l 868 692 m 346 -697 l 346 -354 l 175 -354 l 175 -176 l 522 -176 l 522 -697 l 346 -697 z "},"Ĺ":{"ha":1042,"x_min":0,"x_max":868,"o":"m 524 1036 l 351 1036 l 351 179 l 689 179 l 689 353 l 868 353 l 868 0 l 0 0 l 0 179 l 172 179 l 172 1036 l 0 1036 l 0 1215 l 524 1215 l 524 1036 m 346 1733 l 522 1733 l 522 1561 l 347 1561 l 347 1386 l 174 1386 l 174 1564 l 346 1564 l 346 1733 z "},"ĺ":{"ha":694,"x_min":0,"x_max":521,"o":"m 521 0 l 0 0 l 0 179 l 171 179 l 171 1036 l 0 1036 l 0 1215 l 350 1215 l 350 179 l 521 179 l 521 0 m 347 1732 l 519 1732 l 519 1561 l 344 1561 l 344 1385 l 172 1385 l 172 1563 l 347 1563 l 347 1732 z "},"Ļ":{"ha":1042,"x_min":0,"x_max":868,"o":"m 524 1036 l 351 1036 l 351 179 l 689 179 l 689 353 l 868 353 l 868 0 l 0 0 l 0 179 l 172 179 l 172 1036 l 0 1036 l 0 1215 l 524 1215 l 524 1036 m 343 -694 l 343 -351 l 172 -351 l 172 -174 l 519 -174 l 519 -694 l 343 -694 z "},"ļ":{"ha":694,"x_min":0,"x_max":521,"o":"m 521 0 l 0 0 l 0 179 l 171 179 l 171 1036 l 0 1036 l 0 1215 l 350 1215 l 350 179 l 521 179 l 521 0 m 171 -697 l 171 -354 l 0 -354 l 0 -176 l 347 -176 l 347 -697 l 171 -697 z "},"Ľ":{"ha":1042,"x_min":0,"x_max":1042,"o":"m 524 1036 l 351 1036 l 351 179 l 689 179 l 689 353 l 868 353 l 868 0 l 0 0 l 0 179 l 172 179 l 172 1036 l 0 1036 l 0 1215 l 524 1215 l 524 1036 m 865 693 l 865 1038 l 694 1038 l 694 1215 l 1042 1215 l 1042 693 l 865 693 z "},"ľ":{"ha":778,"x_min":0,"x_max":867,"o":"m 521 0 l 0 0 l 0 179 l 171 179 l 171 1036 l 0 1036 l 0 1215 l 350 1215 l 350 179 l 521 179 l 521 0 m 690 696 l 690 1038 l 519 1038 l 519 1215 l 867 1215 l 867 696 l 690 696 z "},"Ł":{"ha":1231,"x_min":3,"x_max":1044,"o":"m 693 863 l 693 1040 l 867 1040 l 867 868 l 694 868 l 694 701 l 521 701 l 521 179 l 871 179 l 871 353 l 1044 353 l 1044 0 l 178 0 l 178 179 l 354 179 l 354 350 l 175 350 l 175 178 l 3 176 l 3 347 l 176 347 l 176 521 l 354 521 l 354 1036 l 178 1036 l 178 1215 l 693 1215 l 693 1036 l 521 1036 l 521 863 l 693 863 z "},"ł":{"ha":868,"x_min":0,"x_max":868,"o":"m 524 175 l 694 175 l 694 0 l 174 0 l 174 174 l 344 174 l 344 349 l 174 349 l 174 176 l 0 176 l 0 349 l 172 349 l 172 521 l 346 521 l 344 1040 l 174 1040 l 174 1215 l 524 1215 l 524 871 l 693 871 l 693 1040 l 868 1039 l 868 865 l 696 865 l 696 697 l 524 697 l 524 175 z "},"Ń":{"ha":1389,"x_min":0,"x_max":1215,"o":"m 1215 1036 l 1043 1036 l 1043 0 l 863 0 l 863 172 l 690 172 l 690 518 l 518 518 l 518 863 l 353 863 l 353 0 l 0 0 l 0 179 l 172 179 l 172 1036 l 0 1036 l 0 1215 l 525 1215 l 525 868 l 697 868 l 697 525 l 863 525 l 863 1215 l 1215 1215 l 1215 1036 m 690 1733 l 869 1733 l 869 1554 l 699 1554 l 699 1385 l 519 1385 l 519 1564 l 690 1564 l 690 1733 z "},"ń":{"ha":1215,"x_min":0,"x_max":1042,"o":"m 1042 0 l 690 0 l 690 689 l 351 689 l 351 179 l 524 179 l 524 0 l 0 0 l 0 179 l 172 179 l 172 689 l 0 689 l 0 868 l 869 868 l 869 179 l 1042 179 l 1042 0 m 521 1385 l 693 1385 l 693 1215 l 518 1215 l 518 1039 l 346 1039 l 346 1215 l 521 1215 l 521 1385 z "},"Ņ":{"ha":1389,"x_min":0,"x_max":1215,"o":"m 1215 1036 l 1043 1036 l 1043 0 l 863 0 l 863 172 l 690 172 l 690 518 l 518 518 l 518 863 l 353 863 l 353 0 l 0 0 l 0 179 l 172 179 l 172 1036 l 0 1036 l 0 1215 l 525 1215 l 525 868 l 697 868 l 697 525 l 863 525 l 863 1215 l 1215 1215 l 1215 1036 m 519 -699 l 519 -356 l 349 -356 l 349 -178 l 696 -178 l 696 -699 l 519 -699 z "},"ņ":{"ha":1215,"x_min":0,"x_max":1042,"o":"m 1042 0 l 690 0 l 690 689 l 351 689 l 351 179 l 524 179 l 524 0 l 0 0 l 0 179 l 172 179 l 172 689 l 0 689 l 0 868 l 869 868 l 869 179 l 1042 179 l 1042 0 m 519 -696 l 519 -353 l 349 -353 l 349 -175 l 696 -175 l 696 -696 l 519 -696 z "},"Ň":{"ha":1389,"x_min":0,"x_max":1215,"o":"m 1215 1036 l 1043 1036 l 1043 0 l 863 0 l 863 172 l 690 172 l 690 518 l 518 518 l 518 863 l 353 863 l 353 0 l 0 0 l 0 179 l 172 179 l 172 1036 l 0 1036 l 0 1215 l 525 1215 l 525 868 l 697 868 l 697 525 l 863 525 l 863 1215 l 1215 1215 l 1215 1036 m 865 1565 l 865 1740 l 1040 1740 l 1040 1565 l 868 1565 l 868 1392 l 519 1390 l 519 1567 l 350 1567 l 350 1738 l 518 1738 l 518 1565 l 865 1565 z "},"ň":{"ha":1215,"x_min":0,"x_max":1042,"o":"m 1042 0 l 690 0 l 690 689 l 351 689 l 351 179 l 524 179 l 524 0 l 0 0 l 0 179 l 172 179 l 172 689 l 0 689 l 0 868 l 869 868 l 869 179 l 1042 179 l 1042 0 m 694 1217 l 694 1390 l 868 1390 l 868 1214 l 693 1214 l 693 1040 l 347 1040 l 347 1214 l 172 1215 l 172 1392 l 344 1392 l 344 1217 l 694 1217 z "},"Ō":{"ha":868,"x_min":0,"x_max":694,"o":"m 0 0 l 0 1215 l 694 1215 l 694 0 l 0 0 m 515 1036 l 179 1036 l 179 179 l 515 179 l 515 1036 m 693 1383 l 1 1383 l 1 1557 l 693 1557 l 693 1383 z "},"ō":{"ha":867,"x_min":-1,"x_max":693,"o":"m -1 0 l -1 868 l 693 868 l 693 0 l -1 0 m 514 689 l 178 689 l 178 179 l 514 179 l 514 689 m 690 1043 l 0 1043 l 0 1215 l 690 1215 l 690 1043 z "},"Ő":{"ha":868,"x_min":-1,"x_max":694,"o":"m 0 0 l 0 1215 l 694 1215 l 694 0 l 0 0 m 515 1036 l 179 1036 l 179 179 l 515 179 l 515 1036 m 174 1733 l 343 1733 l 343 1564 l 174 1564 l 174 1390 l -1 1390 l -1 1561 l 174 1561 l 174 1733 m 519 1733 l 694 1733 l 694 1564 l 521 1564 l 521 1390 l 347 1390 l 347 1561 l 519 1561 l 519 1733 z "},"ő":{"ha":868,"x_min":-1,"x_max":694,"o":"m 0 0 l 0 868 l 694 868 l 694 0 l 0 0 m 515 689 l 179 689 l 179 179 l 515 179 l 515 689 m 174 1385 l 343 1385 l 343 1215 l 174 1215 l 174 1040 l -1 1040 l -1 1211 l 174 1211 l 174 1385 m 519 1385 l 694 1385 l 694 1215 l 521 1215 l 521 1040 l 347 1040 l 347 1211 l 519 1211 l 519 1385 z "},"Œ":{"ha":1213,"x_min":0,"x_max":1213,"o":"m 1213 863 l 1043 863 l 1043 1036 l 696 1036 l 696 697 l 1040 697 l 1040 518 l 696 518 l 696 179 l 1043 179 l 1043 353 l 1213 353 l 1213 0 l 0 0 l 0 1215 l 1213 1215 l 1213 863 m 515 1036 l 179 1036 l 179 179 l 515 179 l 515 1036 z "},"œ":{"ha":1301,"x_min":0,"x_max":1208,"o":"m 1208 179 l 1208 0 l 0 0 l 0 868 l 1208 868 l 1208 344 l 694 344 l 694 179 l 1208 179 m 515 689 l 179 689 l 179 179 l 515 179 l 515 689 m 693 689 l 693 524 l 1029 524 l 1029 689 l 693 689 z "},"Ŕ":{"ha":1215,"x_min":0,"x_max":1042,"o":"m 690 697 l 690 1036 l 351 1036 l 351 697 l 690 697 m 1042 0 l 690 0 l 690 346 l 518 346 l 518 518 l 351 518 l 351 0 l 0 0 l 0 179 l 172 179 l 172 1036 l 0 1036 l 0 1215 l 869 1215 l 869 518 l 697 518 l 697 353 l 869 353 l 869 179 l 1042 179 l 1042 0 m 521 1733 l 693 1733 l 693 1563 l 518 1563 l 518 1386 l 346 1386 l 346 1564 l 521 1564 l 521 1733 z "},"ŕ":{"ha":868,"x_min":0,"x_max":694,"o":"m 350 179 l 522 179 l 522 0 l 0 0 l 0 179 l 172 179 l 172 689 l 0 689 l 0 868 l 694 868 l 694 517 l 515 517 l 515 689 l 350 689 l 350 179 m 349 1385 l 521 1385 l 521 1215 l 347 1215 l 347 1039 l 175 1039 l 175 1215 l 349 1215 l 349 1385 z "},"Ŗ":{"ha":1215,"x_min":0,"x_max":1042,"o":"m 690 697 l 690 1036 l 351 1036 l 351 697 l 690 697 m 1042 0 l 690 0 l 690 346 l 518 346 l 518 518 l 351 518 l 351 0 l 0 0 l 0 179 l 172 179 l 172 1036 l 0 1036 l 0 1215 l 869 1215 l 869 518 l 697 518 l 697 353 l 869 353 l 869 179 l 1042 179 l 1042 0 m 519 -697 l 519 -354 l 349 -354 l 349 -176 l 696 -176 l 696 -697 l 519 -697 z "},"ŗ":{"ha":868,"x_min":0,"x_max":694,"o":"m 350 179 l 522 179 l 522 0 l 0 0 l 0 179 l 172 179 l 172 689 l 0 689 l 0 868 l 694 868 l 694 517 l 515 517 l 515 689 l 350 689 l 350 179 m 171 -696 l 171 -353 l 0 -353 l 0 -175 l 347 -175 l 347 -696 l 171 -696 z "},"Ř":{"ha":1215,"x_min":0,"x_max":1042,"o":"m 690 697 l 690 1036 l 351 1036 l 351 697 l 690 697 m 1042 0 l 690 0 l 690 346 l 518 346 l 518 518 l 351 518 l 351 0 l 0 0 l 0 179 l 172 179 l 172 1036 l 0 1036 l 0 1215 l 869 1215 l 869 518 l 697 518 l 697 353 l 869 353 l 869 179 l 1042 179 l 1042 0 m 694 1565 l 694 1740 l 869 1740 l 869 1565 l 696 1565 l 696 1392 l 347 1392 l 347 1567 l 178 1567 l 178 1738 l 346 1738 l 346 1565 l 694 1565 z "},"ř":{"ha":868,"x_min":0,"x_max":694,"o":"m 350 179 l 522 179 l 522 0 l 0 0 l 0 179 l 172 179 l 172 689 l 0 689 l 0 868 l 694 868 l 694 517 l 515 517 l 515 689 l 350 689 l 350 179 m 518 1217 l 518 1392 l 693 1392 l 693 1217 l 521 1217 l 521 1043 l 172 1043 l 172 1219 l 3 1219 l 3 1390 l 171 1390 l 171 1217 l 518 1217 z "},"Ś":{"ha":868,"x_min":0,"x_max":694,"o":"m 0 0 l 0 353 l 179 353 l 179 179 l 515 179 l 515 518 l 0 518 l 0 1215 l 694 1215 l 694 863 l 515 863 l 515 1036 l 179 1036 l 179 697 l 694 697 l 694 0 l 0 0 m 350 1735 l 522 1735 l 522 1564 l 349 1564 l 349 1388 l 176 1388 l 176 1565 l 350 1565 l 350 1735 z "},"ś":{"ha":868,"x_min":0,"x_max":694,"o":"m 694 689 l 179 689 l 179 524 l 694 524 l 694 0 l 0 0 l 0 179 l 515 179 l 515 344 l 0 344 l 0 868 l 694 868 l 694 689 m 349 1388 l 521 1388 l 521 1215 l 347 1215 l 347 1040 l 175 1040 l 175 1218 l 349 1218 l 349 1388 z "},"Ş":{"ha":868,"x_min":0,"x_max":694,"o":"m 0 0 l 0 353 l 179 353 l 179 179 l 515 179 l 515 518 l 0 518 l 0 1215 l 694 1215 l 694 863 l 515 863 l 515 1036 l 179 1036 l 179 697 l 694 697 l 694 0 l 525 0 l 525 -347 l 349 -347 l 349 -175 l 178 -175 l 178 0 l 0 0 z "},"ş":{"ha":868,"x_min":0,"x_max":694,"o":"m 0 0 l 0 179 l 515 179 l 515 344 l 0 344 l 0 868 l 694 868 l 694 689 l 179 689 l 179 524 l 694 524 l 694 0 l 519 0 l 519 -347 l 346 -347 l 346 -175 l 172 -175 l 172 0 l 0 0 z "},"Š":{"ha":868,"x_min":0,"x_max":696,"o":"m 0 0 l 0 353 l 179 353 l 179 179 l 515 179 l 515 518 l 0 518 l 0 1215 l 694 1215 l 694 863 l 515 863 l 515 1036 l 179 1036 l 179 697 l 694 697 l 694 0 l 0 0 m 521 1563 l 521 1738 l 696 1738 l 696 1563 l 522 1563 l 522 1389 l 175 1389 l 175 1565 l 4 1565 l 4 1736 l 172 1736 l 172 1563 l 521 1563 z "},"š":{"ha":868,"x_min":-3,"x_max":694,"o":"m 694 689 l 179 689 l 179 524 l 694 524 l 694 0 l 0 0 l 0 179 l 515 179 l 515 344 l 0 344 l 0 868 l 694 868 l 694 689 m 519 1218 l 519 1389 l 693 1389 l 693 1213 l 518 1215 l 518 1043 l 172 1043 l 172 1215 l -3 1215 l -3 1390 l 169 1390 l 169 1218 l 519 1218 z "},"Ţ":{"ha":1042,"x_min":0,"x_max":868,"o":"m 179 863 l 0 863 l 0 1215 l 868 1215 l 868 863 l 689 863 l 689 1036 l 524 1036 l 524 179 l 696 179 l 696 0 l 172 0 l 172 179 l 344 179 l 344 1036 l 179 1036 l 179 863 m 349 -693 l 349 -350 l 178 -350 l 178 -172 l 525 -172 l 525 -693 l 349 -693 z "},"ţ":{"ha":694,"x_min":0,"x_max":521,"o":"m 521 0 l 171 0 l 171 689 l 0 689 l 0 868 l 171 868 l 171 1215 l 350 1215 l 350 868 l 521 868 l 521 689 l 350 689 l 350 179 l 521 179 l 521 0 m 344 -696 l 344 -353 l 174 -353 l 174 -175 l 521 -175 l 521 -696 l 344 -696 z "},"Ť":{"ha":1042,"x_min":0,"x_max":868,"o":"m 179 863 l 0 863 l 0 1215 l 868 1215 l 868 863 l 689 863 l 689 1036 l 524 1036 l 524 179 l 696 179 l 696 0 l 172 0 l 172 179 l 344 179 l 344 1036 l 179 1036 l 179 863 m 524 1561 l 524 1733 l 697 1733 l 697 1557 l 522 1557 l 522 1383 l 175 1383 l 175 1557 l 0 1558 l 0 1735 l 172 1735 l 172 1560 l 524 1561 z "},"ť":{"ha":694,"x_min":0,"x_max":692,"o":"m 521 0 l 171 0 l 171 689 l 0 689 l 0 868 l 171 868 l 171 1215 l 350 1215 l 350 868 l 521 868 l 521 689 l 350 689 l 350 179 l 521 179 l 521 0 m 518 1040 l 518 1386 l 344 1386 l 344 1561 l 692 1561 l 692 1040 l 518 1040 z "},"Ū":{"ha":1215,"x_min":0,"x_max":1042,"o":"m 869 179 l 1042 179 l 1042 0 l 172 0 l 172 1036 l 0 1036 l 0 1215 l 351 1215 l 351 179 l 690 179 l 690 1215 l 869 1215 l 869 179 m 868 1383 l 174 1383 l 174 1557 l 868 1557 l 868 1383 z "},"ū":{"ha":1215,"x_min":0,"x_max":1042,"o":"m 869 179 l 1042 179 l 1042 0 l 172 0 l 172 689 l 0 689 l 0 868 l 351 868 l 351 179 l 690 179 l 690 868 l 869 868 l 869 179 m 865 1042 l 174 1042 l 174 1215 l 865 1215 l 865 1042 z "},"Ů":{"ha":1215,"x_min":0,"x_max":1042,"o":"m 869 179 l 1042 179 l 1042 0 l 172 0 l 172 1036 l 0 1036 l 0 1215 l 351 1215 l 351 179 l 690 179 l 690 1215 l 869 1215 l 869 179 m 350 1738 l 350 1557 l 522 1557 l 522 1738 l 350 1738 m 700 1913 l 700 1388 l 175 1388 l 175 1913 l 700 1913 z "},"ů":{"ha":1215,"x_min":0,"x_max":1042,"o":"m 869 179 l 1042 179 l 1042 0 l 172 0 l 172 689 l 0 689 l 0 868 l 351 868 l 351 179 l 690 179 l 690 868 l 869 868 l 869 179 m 344 1389 l 344 1210 l 517 1210 l 517 1389 l 344 1389 m 693 1565 l 693 1040 l 169 1040 l 169 1565 l 693 1565 z "},"Ű":{"ha":1215,"x_min":0,"x_max":1042,"o":"m 869 179 l 1042 179 l 1042 0 l 172 0 l 172 1036 l 0 1036 l 0 1215 l 351 1215 l 351 179 l 690 179 l 690 1215 l 869 1215 l 869 179 m 350 1732 l 519 1732 l 519 1563 l 349 1563 l 349 1389 l 174 1389 l 174 1560 l 350 1560 l 350 1732 m 694 1732 l 869 1732 l 869 1563 l 696 1563 l 696 1389 l 522 1389 l 522 1560 l 694 1560 l 694 1732 z "},"ű":{"ha":1215,"x_min":0,"x_max":1042,"o":"m 869 179 l 1042 179 l 1042 0 l 172 0 l 172 689 l 0 689 l 0 868 l 351 868 l 351 179 l 690 179 l 690 868 l 869 868 l 869 179 m 350 1388 l 519 1388 l 519 1218 l 349 1218 l 349 1044 l 174 1044 l 174 1215 l 350 1215 l 350 1388 m 694 1388 l 869 1388 l 869 1218 l 696 1218 l 696 1044 l 522 1044 l 522 1215 l 694 1215 l 694 1388 z "},"Ų":{"ha":1215,"x_min":0,"x_max":1042,"o":"m 172 0 l 172 1036 l 0 1036 l 0 1215 l 351 1215 l 351 179 l 690 179 l 690 1215 l 869 1215 l 869 179 l 1042 179 l 1042 -172 l 868 -172 l 868 -347 l 699 -347 l 699 0 l 172 0 z "},"ų":{"ha":1215,"x_min":0,"x_max":1042,"o":"m 172 0 l 172 689 l 0 689 l 0 868 l 351 868 l 351 179 l 690 179 l 690 868 l 869 868 l 869 179 l 1042 179 l 1040 -175 l 871 -175 l 871 -350 l 694 -350 l 694 0 l 172 0 z "},"Ÿ":{"ha":1042,"x_min":0,"x_max":868,"o":"m 868 863 l 696 863 l 696 689 l 524 689 l 524 179 l 696 179 l 696 0 l 172 0 l 172 179 l 344 179 l 344 689 l 172 689 l 172 863 l 0 863 l 0 1215 l 179 1215 l 179 868 l 351 868 l 351 697 l 517 697 l 517 868 l 689 868 l 689 1215 l 868 1215 l 868 863 m 174 1389 l 0 1389 l 0 1563 l 174 1563 l 174 1389 m 865 1389 l 693 1389 l 693 1563 l 865 1563 l 865 1389 z "},"Ź":{"ha":1042,"x_min":0,"x_max":868,"o":"m 696 689 l 524 689 l 524 518 l 351 518 l 351 179 l 689 179 l 689 353 l 868 353 l 868 0 l 0 0 l 0 353 l 172 353 l 172 525 l 344 525 l 344 697 l 517 697 l 517 868 l 689 868 l 689 1036 l 179 1036 l 179 863 l 0 863 l 0 1215 l 868 1215 l 868 863 l 696 863 l 696 689 m 517 1733 l 696 1733 l 696 1563 l 521 1563 l 521 1385 l 346 1385 l 346 1564 l 517 1564 l 517 1733 z "},"ź":{"ha":1042,"x_min":0,"x_max":868,"o":"m 868 0 l 0 0 l 0 179 l 172 179 l 172 351 l 344 351 l 344 524 l 517 524 l 517 689 l 179 689 l 179 517 l 0 517 l 0 868 l 868 868 l 868 689 l 696 689 l 696 517 l 524 517 l 524 344 l 351 344 l 351 179 l 689 179 l 689 351 l 868 351 l 868 0 m 517 1385 l 696 1385 l 696 1206 l 525 1206 l 525 1036 l 346 1036 l 346 1215 l 517 1215 l 517 1385 z "},"Ż":{"ha":1042,"x_min":0,"x_max":868,"o":"m 696 689 l 524 689 l 524 518 l 351 518 l 351 179 l 689 179 l 689 353 l 868 353 l 868 0 l 0 0 l 0 353 l 172 353 l 172 525 l 344 525 l 344 697 l 517 697 l 517 868 l 689 868 l 689 1036 l 179 1036 l 179 863 l 0 863 l 0 1215 l 868 1215 l 868 863 l 696 863 l 696 689 m 521 1390 l 349 1390 l 349 1563 l 521 1563 l 521 1390 z "},"ż":{"ha":1042,"x_min":0,"x_max":868,"o":"m 868 0 l 0 0 l 0 179 l 172 179 l 172 351 l 344 351 l 344 524 l 517 524 l 517 689 l 179 689 l 179 517 l 0 517 l 0 868 l 868 868 l 868 689 l 696 689 l 696 517 l 524 517 l 524 344 l 351 344 l 351 179 l 689 179 l 689 351 l 868 351 l 868 0 m 524 1036 l 344 1036 l 344 1215 l 524 1215 l 524 1036 z "},"Ž":{"ha":1042,"x_min":0,"x_max":868,"o":"m 696 689 l 524 689 l 524 518 l 351 518 l 351 179 l 689 179 l 689 353 l 868 353 l 868 0 l 0 0 l 0 353 l 172 353 l 172 525 l 344 525 l 344 697 l 517 697 l 517 868 l 689 868 l 689 1036 l 179 1036 l 179 863 l 0 863 l 0 1215 l 868 1215 l 868 863 l 696 863 l 696 689 m 518 1565 l 518 1740 l 693 1740 l 693 1565 l 521 1565 l 521 1392 l 172 1392 l 172 1567 l 3 1567 l 3 1738 l 171 1738 l 171 1565 l 518 1565 z "},"ž":{"ha":1042,"x_min":0,"x_max":868,"o":"m 868 0 l 0 0 l 0 179 l 172 179 l 172 351 l 344 351 l 344 524 l 517 524 l 517 689 l 179 689 l 179 517 l 0 517 l 0 868 l 868 868 l 868 689 l 696 689 l 696 517 l 524 517 l 524 344 l 351 344 l 351 179 l 689 179 l 689 351 l 868 351 l 868 0 m 694 1215 l 694 1389 l 868 1389 l 868 1213 l 693 1213 l 693 1039 l 347 1039 l 347 1213 l 172 1214 l 172 1390 l 344 1390 l 344 1215 l 694 1215 z "},"ƒ":{"ha":1042,"x_min":344,"x_max":865,"o":"m 515 690 l 344 690 l 344 869 l 515 869 l 515 1215 l 865 1215 l 865 1036 l 694 1036 l 694 869 l 865 869 l 865 690 l 694 690 l 694 -344 l 344 -344 l 344 -171 l 515 -171 l 515 690 z "},"Ș":{"ha":868,"x_min":0,"x_max":694,"o":"m 0 0 l 0 353 l 179 353 l 179 179 l 515 179 l 515 518 l 0 518 l 0 1215 l 694 1215 l 694 863 l 515 863 l 515 1036 l 179 1036 l 179 697 l 694 697 l 694 0 l 0 0 m 343 -697 l 343 -354 l 172 -354 l 172 -176 l 519 -176 l 519 -697 l 343 -697 z "},"ș":{"ha":868,"x_min":0,"x_max":694,"o":"m 694 689 l 179 689 l 179 524 l 694 524 l 694 0 l 0 0 l 0 179 l 515 179 l 515 344 l 0 344 l 0 868 l 694 868 l 694 689 m 342 -696 l 342 -353 l 171 -353 l 171 -175 l 518 -175 l 518 -696 l 342 -696 z "},"ˆ":{"ha":821,"x_min":3,"x_max":694,"o":"m 519 1122 l 519 1297 l 694 1297 l 694 1122 l 521 1122 l 521 949 l 172 949 l 172 1124 l 3 1124 l 3 1294 l 171 1294 l 171 1122 l 519 1122 z "},"ˇ":{"ha":808,"x_min":0,"x_max":696,"o":"m 522 1126 l 522 1300 l 696 1300 l 696 1124 l 521 1124 l 521 950 l 175 950 l 175 1124 l 0 1125 l 0 1301 l 172 1301 l 172 1126 l 522 1126 z "},"˘":{"ha":754,"x_min":0,"x_max":864,"o":"m 171 943 l 0 943 l 0 1115 l 174 1115 l 174 1289 l 517 1289 l 517 1117 l 693 1117 l 693 1288 l 864 1288 l 864 1115 l 690 1115 l 690 943 l 519 944 l 519 1113 l 171 1113 l 171 943 z "},"˙":{"ha":347,"x_min":0,"x_max":347,"o":"m 347 946 l 0 946 l 0 1126 l 347 1126 l 347 946 m 38 1089 l 38 983 l 310 983 l 310 1089 l 38 1089 z "},"˚":{"ha":442,"x_min":3,"x_max":349,"o":"m 176 1292 l 349 1292 l 349 1121 l 175 1121 l 175 946 l 3 946 l 3 1124 l 176 1124 l 176 1292 z "},"˛":{"ha":521,"x_min":-3,"x_max":350,"o":"m -3 0 l 350 0 l 350 -178 l 174 -178 l 174 -367 l -3 -367 l -3 0 z "},"˜":{"ha":824,"x_min":174,"x_max":869,"o":"m 349 1289 l 518 1289 l 518 1119 l 349 1119 l 349 946 l 174 946 l 174 1117 l 349 1117 l 349 1289 m 694 1289 l 869 1289 l 869 1119 l 696 1119 l 696 946 l 522 946 l 522 1117 l 694 1117 l 694 1289 z "},"˝":{"ha":521,"x_min":171,"x_max":867,"o":"m 346 1289 l 515 1289 l 515 1119 l 346 1119 l 346 946 l 171 946 l 171 1117 l 346 1117 l 346 1289 m 692 1289 l 867 1289 l 867 1119 l 693 1119 l 693 946 l 519 946 l 519 1117 l 692 1117 l 692 1289 z "},"–":{"ha":1389,"x_min":0,"x_max":1042,"o":"m 1042 521 l 0 521 l 0 694 l 1042 694 l 1042 521 z "},"—":{"ha":1389,"x_min":0,"x_max":1215,"o":"m 1215 521 l 0 521 l 0 694 l 1215 694 l 1215 521 z "},"‘":{"ha":521,"x_min":0,"x_max":347,"o":"m 176 1214 l 176 871 l 347 871 l 347 693 l 0 693 l 0 1214 l 176 1214 z "},"’":{"ha":521,"x_min":0,"x_max":347,"o":"m 171 614 l 171 957 l 0 957 l 0 1135 l 347 1135 l 347 614 l 171 614 z "},"‚":{"ha":521,"x_min":0,"x_max":347,"o":"m 171 -347 l 171 -4 l 0 -4 l 0 174 l 347 174 l 347 -347 l 171 -347 z "},"“":{"ha":1042,"x_min":0,"x_max":868,"o":"m 351 694 l 0 694 l 0 1215 l 179 1215 l 179 872 l 351 872 l 351 694 m 868 694 l 517 694 l 517 1215 l 696 1215 l 696 872 l 868 872 l 868 694 z "},"”":{"ha":1042,"x_min":0,"x_max":868,"o":"m 172 694 l 172 1038 l 0 1038 l 0 1215 l 351 1215 l 351 694 l 172 694 m 689 694 l 689 1038 l 517 1038 l 517 1215 l 868 1215 l 868 694 l 689 694 z "},"„":{"ha":1042,"x_min":0,"x_max":868,"o":"m 172 -347 l 172 -4 l 0 -4 l 0 174 l 351 174 l 351 -347 l 172 -347 m 868 -347 l 689 -347 l 689 -4 l 517 -4 l 517 174 l 868 174 l 868 -347 z "},"†":{"ha":1389,"x_min":174,"x_max":694,"o":"m 521 0 l 347 0 l 347 693 l 174 693 l 174 867 l 347 867 l 347 1040 l 521 1040 l 521 867 l 694 867 l 694 693 l 521 693 l 521 0 z "},"‡":{"ha":1389,"x_min":174,"x_max":694,"o":"m 521 0 l 347 0 l 347 174 l 174 174 l 174 347 l 347 347 l 347 693 l 174 693 l 174 867 l 347 867 l 347 1040 l 521 1040 l 521 867 l 694 867 l 694 693 l 521 693 l 521 347 l 694 347 l 694 174 l 521 174 l 521 0 z "},"•":{"ha":521,"x_min":0,"x_max":347,"o":"m 347 347 l 0 347 l 0 694 l 347 694 l 347 347 z "},"…":{"ha":1042,"x_min":0,"x_max":868,"o":"m 179 0 l 0 0 l 0 174 l 179 174 l 179 0 m 524 0 l 344 0 l 344 174 l 524 174 l 524 0 m 868 0 l 689 0 l 689 174 l 868 174 l 868 0 z "},"‰":{"ha":1614,"x_min":1,"x_max":1613,"o":"m 483 353 l 483 868 l 656 868 l 656 1215 l 833 1215 l 833 863 l 663 863 l 663 346 l 490 346 l 490 0 l 313 0 l 313 353 l 483 353 m 1 474 l 1 1082 l 418 1082 l 418 474 l 1 474 m 311 992 l 108 992 l 108 564 l 311 564 l 311 992 m 722 0 l 722 607 l 1139 607 l 1139 0 l 722 0 m 1032 517 l 829 517 l 829 90 l 1032 90 l 1032 517 m 1196 0 l 1196 607 l 1613 607 l 1613 0 l 1196 0 m 1506 517 l 1303 517 l 1303 90 l 1506 90 l 1506 517 z "},"‹":{"ha":367,"x_min":0,"x_max":349,"o":"m 0 696 l 176 694 l 176 868 l 344 868 l 344 694 l 175 694 l 175 521 l 349 521 l 349 350 l 172 350 l 174 522 l 0 522 l 0 696 z "},"›":{"ha":367,"x_min":-1,"x_max":347,"o":"m 172 524 l 174 351 l -1 351 l -1 522 l 169 522 l 171 694 l 1 694 l 1 868 l 169 868 l 169 693 l 347 693 l 347 524 l 172 524 z "},"⁄":{"ha":588,"x_min":46,"x_max":567,"o":"m 217 353 l 217 869 l 389 869 l 389 1215 l 567 1215 l 567 863 l 396 863 l 396 346 l 224 346 l 224 0 l 46 0 l 46 353 l 217 353 z "},"€":{"ha":1042,"x_min":0,"x_max":868,"o":"m 524 346 l 351 346 l 351 179 l 689 179 l 689 353 l 868 353 l 868 0 l 172 0 l 172 346 l 0 346 l 0 525 l 172 525 l 172 689 l 0 689 l 0 868 l 172 868 l 172 1215 l 868 1215 l 868 863 l 689 863 l 689 1036 l 351 1036 l 351 868 l 524 868 l 524 689 l 351 689 l 351 525 l 524 525 l 524 346 z "},"™":{"ha":1129,"x_min":0,"x_max":1129,"o":"m 90 942 l 0 942 l 0 1118 l 435 1118 l 435 942 l 344 942 l 344 1028 l 263 1028 l 263 600 l 349 600 l 349 510 l 86 510 l 86 600 l 172 600 l 172 1028 l 90 1028 l 90 942 m 1129 1028 l 1043 1028 l 1043 600 l 1129 600 l 1129 510 l 953 510 l 953 1028 l 869 1028 l 869 683 l 781 683 l 781 1028 l 697 1028 l 697 600 l 783 600 l 783 510 l 521 510 l 521 600 l 607 600 l 607 1028 l 521 1028 l 521 1118 l 1129 1118 l 1129 1028 z "},"∆":{"ha":868,"x_min":0,"x_max":868,"o":"m 0 610 l 172 610 l 172 782 l 344 782 l 344 954 l 524 954 l 524 782 l 696 782 l 696 610 l 868 610 l 868 90 l 0 90 l 0 610 m 689 263 l 689 432 l 517 432 l 517 604 l 351 604 l 351 432 l 179 432 l 179 263 l 689 263 z "},"∑":{"ha":868,"x_min":0,"x_max":694,"o":"m 350 869 l 522 869 l 522 697 l 694 697 l 694 518 l 522 518 l 522 346 l 350 346 l 350 174 l 0 174 l 0 353 l 172 353 l 172 525 l 344 525 l 344 690 l 172 690 l 172 863 l 0 863 l 0 1042 l 350 1042 l 350 869 z "},"−":{"ha":961,"x_min":0,"x_max":868,"o":"m 868 506 l 0 506 l 0 685 l 868 685 l 868 506 z "},"√":{"ha":1263,"x_min":0,"x_max":1263,"o":"m 896 1217 l 1263 1217 l 1263 1040 l 1072 1040 l 1072 863 l 901 863 l 901 346 l 729 346 l 729 0 l 728 0 l 363 0 l 363 172 l 190 172 l 190 344 l 0 344 l 0 521 l 365 521 l 365 176 l 551 176 l 551 353 l 722 353 l 722 869 l 894 869 l 894 1215 l 896 1215 l 896 1217 z "},"≠":{"ha":1042,"x_min":0,"x_max":868,"o":"m 524 0 l 344 0 l 344 690 l 0 690 l 0 869 l 172 869 l 172 1043 l 344 1043 l 344 1215 l 524 1215 l 524 1043 l 696 1043 l 696 869 l 868 869 l 868 690 l 524 690 l 524 0 z "},"≤":{"ha":868,"x_min":0,"x_max":696,"o":"m 694 949 l 522 949 l 522 776 l 350 776 l 350 611 l 522 611 l 522 439 l 694 439 l 694 260 l 344 260 l 344 432 l 172 432 l 172 604 l 0 604 l 0 783 l 172 783 l 172 956 l 344 956 l 344 1128 l 694 1128 l 694 949 m 696 0 l 1 0 l 1 174 l 696 174 l 696 0 z "},"≥":{"ha":868,"x_min":0,"x_max":696,"o":"m 351 1128 l 351 956 l 524 956 l 524 783 l 696 783 l 696 604 l 524 604 l 524 432 l 351 432 l 351 260 l 1 260 l 1 439 l 174 439 l 174 611 l 346 611 l 346 776 l 174 776 l 174 949 l 1 949 l 1 1128 l 351 1128 m 694 174 l 694 0 l 0 0 l 0 174 l 694 174 z "},"◊":{"ha":868,"x_min":0,"x_max":868,"o":"m 0 1061 l 172 1061 l 172 1233 l 344 1233 l 344 1406 l 524 1406 l 524 1233 l 696 1233 l 696 1061 l 868 1061 l 868 344 l 696 344 l 696 172 l 524 172 l 524 0 l 344 0 l 344 172 l 172 172 l 172 344 l 0 344 l 0 1061 m 351 522 l 351 350 l 517 350 l 517 522 l 689 522 l 689 883 l 517 883 l 517 1056 l 351 1056 l 351 883 l 179 883 l 179 522 l 351 522 z "},"":{"ha":440,"x_min":46,"x_max":393,"o":"m 217 -631 l 217 -287 l 46 -287 l 46 -110 l 393 -110 l 393 -631 l 217 -631 z "},"ﬁ":{"ha":964,"x_min":0,"x_max":871,"o":"m 0 0 l 0 179 l 171 179 l 171 689 l 0 689 l 0 868 l 171 868 l 171 1215 l 521 1215 l 521 1036 l 350 1036 l 350 868 l 700 868 l 700 179 l 871 179 l 871 0 l 0 0 m 521 689 l 350 689 l 350 179 l 521 179 l 521 689 z "},"ﬂ":{"ha":1122,"x_min":0,"x_max":1039,"o":"m 868 179 l 1039 179 l 1039 0 l 0 0 l 0 179 l 171 179 l 171 689 l 0 689 l 0 868 l 171 868 l 171 1215 l 868 1215 l 868 179 m 350 1036 l 350 868 l 521 868 l 521 689 l 350 689 l 350 179 l 692 179 l 692 1036 l 350 1036 z "}}}
